<svg xmlns="http://www.w3.org/2000/svg" viewBox="0 0 32 32" enable-background="new 0 0 32 32"><path fill="#010202" d="M0 4.57c.53 0 1.05-.04 1.55-.13s.96-.24 1.37-.44c.41-.21.75-.47 1.04-.8.29-.33.47-.73.56-1.2h1.53v14.93h-2.24v-10.36h-3.81v-2zM18.89 23.27h-10.6c.01-1.29.32-2.41.93-3.37.61-.96 1.43-1.8 2.48-2.51.5-.37 1.03-.73 1.57-1.08.55-.35 1.05-.72 1.51-1.12.46-.4.83-.83 1.13-1.3.3-.47.45-1 .47-1.61 0-.28-.03-.58-.1-.9-.07-.32-.19-.61-.39-.89-.19-.27-.46-.5-.8-.69-.34-.18-.78-.28-1.33-.28-.5 0-.92.1-1.25.3-.33.2-.6.47-.8.82-.2.35-.35.76-.44 1.23-.1.47-.15.98-.17 1.53h-2.52c0-.86.11-1.65.34-2.38.23-.73.57-1.36 1.03-1.9.46-.53 1.02-.95 1.67-1.25.66-.3 1.42-.45 2.3-.45.94 0 1.74.15 2.37.47.63.31 1.15.7 1.54 1.17.39.47.67.99.83 1.54.16.55.24 1.08.24 1.59 0 .62-.1 1.18-.29 1.68-.19.5-.45.96-.78 1.39-.32.42-.69.81-1.11 1.16-.41.36-.84.69-1.29 1-.44.31-.89.61-1.33.89-.44.28-.85.56-1.23.84-.38.28-.71.57-.99.88-.28.3-.47.62-.58.96h7.56v2.28zM24.8 20.55c.41.01.83-.01 1.24-.09.41-.07.78-.2 1.11-.39.32-.18.59-.44.79-.77.2-.32.3-.72.3-1.2 0-.67-.23-1.2-.68-1.6-.45-.4-1.03-.6-1.74-.6-.44 0-.83.09-1.15.27-.32.18-.6.42-.81.72-.21.3-.37.64-.48 1.02-.1.38-.15.77-.13 1.16h-2.53c.03-.75.17-1.45.42-2.09s.6-1.2 1.03-1.67c.44-.47.96-.84 1.59-1.11.62-.27 1.32-.4 2.11-.4.61 0 1.2.09 1.79.27.58.18 1.11.44 1.57.78.47.34.84.77 1.12 1.3.28.52.42 1.13.42 1.81 0 .78-.18 1.47-.53 2.05-.36.58-.91 1.01-1.66 1.27v.04c.89.18 1.58.62 2.07 1.32.5.7.74 1.56.74 2.56 0 .74-.15 1.4-.44 1.98-.3.58-.7 1.08-1.2 1.49-.5.41-1.09.72-1.75.94-.67.22-1.37.33-2.11.33-.9 0-1.69-.13-2.36-.39-.67-.26-1.23-.62-1.68-1.1-.45-.47-.79-1.04-1.03-1.71-.24-.67-.36-1.4-.38-2.22h2.53c-.03.95.2 1.73.7 2.36.5.63 1.24.94 2.23.94.84 0 1.55-.24 2.12-.72.57-.48.85-1.16.85-2.05 0-.61-.12-1.09-.35-1.44-.24-.35-.55-.62-.93-.81-.39-.18-.82-.3-1.3-.34-.48-.04-.97-.06-1.47-.04v-1.87z"/></svg>