<?xml version="1.0" encoding="utf-8"?>
<!-- Generator: Adobe Illustrator 16.0.0, SVG Export Plug-In . SVG Version: 6.00 Build 0)  -->
<!DOCTYPE svg PUBLIC "-//W3C//DTD SVG 1.1//EN" "http://www.w3.org/Graphics/SVG/1.1/DTD/svg11.dtd">
<svg version="1.1" id="Layer_1" xmlns="http://www.w3.org/2000/svg" xmlns:xlink="http://www.w3.org/1999/xlink" x="0px" y="0px"
	 width="32px" height="32px" viewBox="0 0 32 32" enable-background="new 0 0 32 32" xml:space="preserve">
<g>
	<path d="M9,5V3H4v2H0v24h32V5H9z M6.5,13C5.12,13,4,11.88,4,10.5S5.12,8,6.5,8S9,9.12,9,10.5S7.88,13,6.5,13z M20,26
		c-4.96,0-9-4.04-9-9s4.04-9,9-9s9,4.04,9,9S24.96,26,20,26z"/>
	<path d="M20,11.5c-3.03,0-5.5,2.47-5.5,5.5s2.47,5.5,5.5,5.5s5.5-2.47,5.5-5.5S23.03,11.5,20,11.5z"/>
</g>
</svg>
