<?xml version="1.0" standalone="no"?>
<!DOCTYPE svg PUBLIC "-//W3C//DTD SVG 1.1//EN" "http://www.w3.org/Graphics/SVG/1.1/DTD/svg11.dtd" >
<svg xmlns="http://www.w3.org/2000/svg">
<metadata>Generated by IcoMoon</metadata>
<defs>
<font id="bbc-sport" horiz-adv-x="1024">
<font-face units-per-em="1024" ascent="960" descent="-64" />
<missing-glyph horiz-adv-x="1024" />
<glyph unicode="&#x20;" horiz-adv-x="512" d="" />
<glyph unicode="&#xe000;" glyph-name="uniE000" horiz-adv-x="4077" d="M782.178 953.437h138.66v-997.456h-125.24l-666.462 769.338v-769.338h-134.186v997.456h116.295l670.935-773.811v773.811zM1175.794 953.437h568.058v-125.24h-424.925v-304.157h411.507v-129.714h-411.507v-308.63h438.343v-129.714h-581.477v997.456zM3269.11 953.437h143.132l-407.034-1001.929h-31.31l-326.521 809.594-326.521-809.594h-31.31l-402.561 1001.929h143.132l277.32-688.826 272.846 688.826h138.66l277.32-688.826 272.846 688.826zM3796.911 371.96l-107.35 67.094c-67.094 40.256-116.295 80.513-143.132 120.768s-44.729 84.984-44.729 138.66c0 80.513 26.838 143.132 80.513 192.335s125.24 76.040 214.699 76.040c84.984 0 161.024-22.364 228.119-71.567v-161.024c-71.567 67.094-147.606 102.876-232.591 102.876-44.729 0-84.984-8.946-116.295-31.31s-44.729-49.202-44.729-84.984c0-31.31 8.946-58.148 31.31-84.984s58.148-53.675 107.35-80.513l107.35-62.621c120.768-71.567 183.389-165.497 183.389-277.32 0-80.513-26.838-143.132-80.513-196.808-53.675-49.202-125.24-76.040-210.227-76.040-98.404 0-187.862 31.31-268.374 89.458v183.389c76.040-98.404 165.497-147.606 268.374-147.606 44.729 0 80.513 13.418 111.822 35.784 31.31 26.838 44.729 58.148 44.729 93.93 4.472 62.621-40.256 120.768-129.714 174.443z" />
<glyph unicode="&#xe006;" glyph-name="uniE006" d="M0 832h1024v-192h-1024v192zM0 512h1024v-192h-1024v192zM0 192h1024v-192h-1024v192z" />
<glyph unicode="&#xe008;" glyph-name="uniE008" d="M1024 863.98h-229.14l-282.86-467.18-282.94 467.18h-229.060l512-831.96z" />
<glyph unicode="&#xe009;" glyph-name="uniE009" d="M96.020 960v-229.14l467.18-282.86-467.18-282.94v-229.060l831.96 512z" />
<glyph unicode="&#xe00a;" glyph-name="uniE00A" d="M927.98-64v229.14l-467.18 282.86 467.18 282.94v229.060l-831.96-512z" />
<glyph unicode="&#xe00b;" glyph-name="uniE00B" d="M0 32.020h229.14l282.86 467.18 282.94-467.18h229.060l-512 831.96z" />
<glyph unicode="&#xe00c;" glyph-name="uniE00C" d="M21.334 917.334v-981.334l245.334 245.334h736l-0.002 736h-981.332zM144 610.646h552v-122.666l-552-0.002v122.668zM880 303.978h-736v122.688h736v-122.688zM880 671.978h-736v122.666h736v-122.666z" />
<glyph unicode="&#xe019;" glyph-name="uniE019" d="M0 960v-256h1024v256zM0 416v-96h1024v256h-1024zM0 32v-96h1024v256h-1024z" />
<glyph unicode="&#xe600;" glyph-name="uniE600" horiz-adv-x="384" d="M0 552.448h384l-192-208.96z" />
<glyph unicode="&#xe601;" glyph-name="uniE601" horiz-adv-x="512" d="M14.528 711.104l112 112.064 372.8-374.464-372.8-375.808-112 115.2 262.336 260.608z" />
<glyph unicode="&#xe602;" glyph-name="chevron-right-thin" d="M256 187.968v-104.832l533.952 362.56-533.952 367.168v-104.512l380.544-263.104z" />
<glyph unicode="&#xe603;" glyph-name="uniE603" horiz-adv-x="960" d="M720 192c0-132.548-107.452-240-240-240s-240 107.452-240 240c0 132.548 107.452 240 240 240s240-107.452 240-240zM519.616 960l-252.288-252.288 212.672-205.696 473.6 457.984zM440.384 960h-433.984l220.608-213.376z" />
<glyph unicode="&#xe604;" glyph-name="uniE604" d="M577.061 324.51l-23.376-13.44c-1.312-0.784-3.008-1.568-4.064-2.752-1.152-1.248-1.84-2.912-1.84-4.768 0-1.136 0.272-2.176 0.752-3.168 0.688-1.408 1.744-2.224 2.848-3.344 6.768-6.912 10.928-16.432 10.928-26.912 0-21.328-17.248-38.592-38.56-38.592h-106.24c-34.256 0-47.888 39.328-32.768 65.184 3.296 5.568 7.984 10.384 14.016 13.856l136.112 78.32c4.224 2.464 4.592 3.68 6.288 8.016 0.688 1.792 1.28 3.6 1.712 5.392 0.976 3.92 1.408 7.872 1.344 11.68-0.16 8.352-2.688 16.352-7.024 23.184-2.688 4.192-6.16 7.968-10.288 11.104-0.816 0.64-1.808 1.376-2.72 1.84-0.848 0.368-1.872 0.592-2.848 0.592-1.84 0-3.488-0.688-4.736-1.792-0.624-0.576-1.152-1.232-1.648-1.888-29.008-36.576-65.872-65.328-107.12-84.544-50.304-23.44-107.184-32.784-164.512-25.104-0.896 0.096-1.552 0.208-2.4 0.128-0.816-0.064-1.568-0.304-2.256-0.64-0.528-0.224-0.992-0.544-1.456-0.768l-58.448-33.648c-18.368-10.592-41.888-4.24-52.448 14.16-10.592 18.4-4.256 41.872 14.176 52.464l63.536 36.576c12.080 6.96 22.736 12.688 37.552 9.92 46.304-8.704 92.864-2.144 133.68 16.88 40.784 19.008 75.696 50.416 98.784 91.44 0.848 1.584 0.384 0.72 0.784 1.408 0.384 0.688 0.784 1.376 1.216 2.032 0.416 0.768 0.816 1.456 1.312 2.176 5.936 13.536 19.44 23.040 35.248 23.040h26.768c2.32 0.032 5.312-0.032 7.328 1.216 2.032 1.248 3.392 3.472 3.392 6.064 0 4.128-2.624 5.584-5.584 7.44l-110.608 64.272c-18.416 10.672-24.688 34.192-14.032 52.608 10.656 18.4 34.208 24.688 52.624 14.032l240.464-139.728c10.096-5.872 24.032-12.128 30.848-21.248 4.752-6.384 7.584-14.304 7.584-22.928 0-21.2-17.248-38.416-38.496-38.416l-94.512-0.096c-1.568 0-4.096 0.064-5.536-0.528-2.592-1.056-4.4-3.616-4.4-6.56 0-1.968 0.752-3.12 1.552-4.816 6.848-14.944 10.736-31.344 11.072-48.368 0.752-36.48-10.976-71.936-44-90.976zM824.837 676.11c43.072 0 77.984-34.976 77.984-78.016 0-43.088-34.912-77.968-77.984-77.968-43.056 0-77.984 34.88-77.984 77.968 0 43.040 34.928 78.016 77.984 78.016zM387.605 192.638c-4.256 0-7.728 3.472-7.728 7.696 0 4.272 3.472 7.744 7.728 7.744h167.328c4.256 0 7.744-3.472 7.744-7.744 0-4.224-3.488-7.696-7.744-7.696h-167.328z" />
<glyph unicode="&#xe605;" glyph-name="uniE605" d="M640.165 452.69l-67.168-113.856c-0.736-1.216-1.312-2.352-2.448-3.296-1.216-0.992-2.8-1.616-4.528-1.616-2.912 0-4.096 1.424-6.224 2.864-11.808 8.224-27.808 9.376-41.088 1.696-4.72-2.72-8.624-6.32-11.648-10.416-1.2-1.616-1.888-3.056-3.76-4.112-1.024-0.592-2.208-0.912-3.472-0.912-1.12 0-2.224 0.272-3.184 0.752-2.4 1.216-3.376 3.536-4.656 5.744l-47.344 81.616c-0.976 1.712-1.744 2.8-1.744 4.912 0 2.8 1.648 5.248 4.064 6.4 1.936 0.912 4.64 0.688 6.784 0.912 6.272 0.704 12.448 2.976 17.936 6.864 24.56 17.472 52.336 29.28 81.392 35.072 26.784 5.312 54.512 5.472 81.664 0.208 2.144-0.4 3.744-0.624 5.456-2.304 1.296-1.28 2.064-3.056 2.064-5.008 0-2.304-1.024-3.68-2.096-5.52zM227.829 377.138c-4.256 0-7.68 3.456-7.68 7.696s3.424 7.712 7.68 7.712c87.952 0 167.632-35.696 225.296-93.328 57.648-57.664 93.312-137.312 93.312-225.296 0-4.256-3.456-7.696-7.696-7.696-4.256 0-7.696 3.44-7.696 7.696 0 83.728-33.936 159.536-88.8 214.416-54.88 54.864-130.704 88.8-214.416 88.8zM798.965 489.282c-2.352 11.328-5.2 21.936-8.592 31.792-8.832 25.712-21.696 49.744-37.952 71.296-9.44 12.448-19.984 24.080-31.52 34.672-1.632 1.472-3.504 2.816-4.32 4.928-0.288 0.8-0.464 1.648-0.464 2.528 0 1.040 0.24 2.064 0.656 2.96 0.784 1.648 2.4 3.024 3.68 4.304 5.536 5.584 10.88 11.456 15.952 17.648 15.168 18.48 27.344 38.768 36.272 60.224s14.72 44.368 17.104 68.048c2.080 21.056-13.312 39.824-34.384 41.904s-39.824-13.312-41.888-34.4c-1.616-15.808-5.584-31.344-11.728-46.128-6.192-14.816-14.416-28.624-24.576-40.992-28.96-35.296-70.144-56.304-113.904-61.776-44.176-5.568-90.784 4.688-130.032 31.92-17.408 12.112-41.344 7.824-53.472-9.616-12.096-17.408-7.776-41.36 9.632-53.488 55.408-38.464 121.040-52.944 183.184-45.152 23.312 2.928 46.128 8.992 67.792 18.064h0.016c0.912 0.432 1.952 0.688 3.040 0.688 1.712 0 3.28-0.624 4.496-1.632v0.016c0.784-0.624 1.6-1.232 2.416-1.792 15.68-10.928 29.408-24.192 40.752-39.2 0.96-1.312 1.92-2.592 2.864-3.904l-0.032-0.032c0.88-1.136 1.408-2.624 1.408-4.208 0-3.904-3.168-7.088-7.088-7.088-0.848 0-1.664 0.16-2.416 0.432-8.736 2.896-17.664 5.424-26.752 7.488-40.208 9.296-81.328 9.76-120.752 1.92-24.080-4.784-47.584-12.656-69.888-23.52-1.728-0.832-2.944-1.6-4.96-1.6-1.456 0-2.768 0.464-3.904 1.184-1.648 1.088-2.272 2.4-3.2 4l-10.16 17.568c-10.528 18.32-33.936 24.656-52.256 14.112-4.688-2.688-8.592-6.224-11.616-10.288-0.72-0.96-1.376-2.048-2.32-2.832-1.216-1.056-2.848-1.712-4.576-1.712-1.552 0-2.96 0.48-4.112 1.312-1.44 1.008-2.032 2.144-2.848 3.584l-71.12 122.608c-0.064 0.128-0.128 0.24-0.224 0.336-3.344 6.016-3.968 12.864-2.304 19.056 1.68 6.32 5.776 11.984 11.904 15.52 3.664 2.112 4.912 6.8 2.784 10.496-2.128 3.648-6.816 4.912-10.48 2.784-9.776-5.648-16.336-14.72-19.056-24.848-2.656-9.936-1.584-20.88 3.84-30.56 0.096-0.16 0.16-0.32 0.256-0.464l330.912-570.752c5.648-9.792 14.72-16.368 24.832-19.056 10.096-2.704 21.232-1.552 31.024 4.096 3.664 2.096 4.944 6.784 2.816 10.432-2.112 3.68-6.784 4.944-10.464 2.832-6.096-3.52-13.056-4.224-19.408-2.528-6.304 1.68-12 5.808-15.52 11.904l-63.104 108.864c-1.248 2.144-2.912 4.416-2.912 6.976 0 2.512 1.296 4.72 3.28 5.968 2.16 1.376 5.2 1.184 7.664 1.616 4.336 0.752 8.592 2.272 12.624 4.592 2.368 1.36 4.512 2.944 6.448 4.704 4.272 3.024 8.016 6.976 10.864 11.776l107.856 182.848c0.896 1.504 1.68 3.152 3.088 4.256 1.216 0.96 2.736 1.488 4.368 1.488 0.592 0 1.152-0.048 1.712-0.192 1.488-0.368 2.32-1.040 3.456-1.92 5.248-4.016 10.24-8.272 15.056-12.752 15.52-14.448 39.808-13.568 54.224 1.952 16.528 17.776 10.576 52.768 6.032 74.736zM554.117 675.042c42.048-8.72 83.152 18.272 91.872 60.304 8.72 42.016-18.288 83.136-60.304 91.856-42.032 8.704-83.168-18.304-91.856-60.336-8.72-42.016 18.288-83.136 60.288-91.824z" />
<glyph unicode="&#xe606;" glyph-name="uniE606" d="M885.357 385.164c-0.512-2.896-2.112-5.424-4.352-7.136-0.944-0.72-2.224-1.44-3.296-2.032l-167.472-97.024c-2.16-1.216-3.6-3.536-3.6-6.192v-41.28c0-2.624 1.44-4.912 3.568-6.128l180.384-104.4c0.976-0.48 2.080-0.768 3.216-0.768 3.872 0 7.040 3.136 7.072 7.008 0 125.312-0.064 250.624 0 375.952 0 4.24-3.408 7.648-7.664 7.648-4.208 0-7.648-3.408-7.648-7.648l-0.064-112.8c0-1.456 0.064-3.744-0.144-5.2zM731.165 152.236v0c-0.432-0.464-0.848-0.992-1.216-1.584-3.504-6.096-9.184-10.208-15.504-11.904-6.208-1.664-13.024-1.008-19.024 2.336-0.128 0.064-0.272 0.128-0.4 0.192l-97.28 56.224c-1.44 0.832-2.768 1.44-3.84 2.752-0.96 1.216-1.568 2.784-1.568 4.464 0 1.104 0.256 2.144 0.72 3.088 0.72 1.472 2.928 3.136 4.192 4.224 3.12 2.72 5.904 6 8.112 9.808 10.624 18.352 4.352 41.808-13.968 52.416l-19.984 11.552c-1.264 0.704-3.2 1.888-4.032 3.040-0.896 1.152-1.392 2.624-1.392 4.176 0 2.144 1.44 5.728 2.048 7.792 10.224 35.056 12.672 71.52 7.68 106.944-6.944 49.28-28.224 96.56-62.976 135.28-9.776 10.928-20.448 20.928-31.776 29.92-1.728 1.36-3.728 2.576-4.672 4.624-0.432 0.912-0.672 1.952-0.672 3.008 0 1.312 0.368 2.528 0.96 3.568 1.312 2.224 4.144 3.456 6.256 4.704l50.688 29.424c0.96 0.56 1.936 1.184 2.992 1.488 0.624 0.16 1.28 0.256 1.968 0.256 1.408 0 2.688-0.384 3.792-1.072 1.52-0.96 2.048-1.968 2.864-3.424l86.816-156.944c10.208-18.592 33.52-25.408 52.112-15.184 18.608 10.208 25.392 33.536 15.168 52.128l-99.792 180.432c-1.344 2.48-2.944 4.752-4.72 6.784-1.312 2.32-2.88 4.528-4.704 6.624-31.872 36.064-72.464 61.632-116.688 75.184-44.272 13.568-92.208 15.136-138.768 3.152-20.512-5.232-32.864-26.080-27.632-46.56 5.216-20.496 26.064-32.88 46.576-27.648 32.592 8.4 66.208 7.28 97.28-2.224 5.808-1.808 11.568-3.872 17.168-6.256 2.496-1.024 4.944-1.776 6.368-4.336 0.576-1.024 0.912-2.192 0.912-3.44 0-1.152-0.272-2.224-0.752-3.184-1.056-2.096-2.368-2.72-4.208-3.792l-96.224-55.84c-1.088-0.624-2.144-1.296-3.136-2-8.032-4.576-14.48-12.032-17.536-21.52-5.472-16.848 1.328-34.72 15.44-43.968 5.088-3.344 9.968-4.56 15.52-6.624 5.376-1.968 10.624-4.192 15.76-6.656 2.576-1.248 5.152-2.128 6.432-4.912 0.432-0.912 0.656-1.936 0.656-2.992 0-1.104-0.24-2.16-0.688-3.104-1.136-2.304-2.96-3.088-5.024-4.304l-130.432-74.48c-11.28-6.4-18.096-17.712-19.216-29.712-0.24-2.448-0.128-6.816-1.744-8.848-1.312-1.6-3.28-2.624-5.536-2.624-2.224 0-3.536 0.928-5.376 1.968l-87.872 50.784c-6.144 3.536-10.24 9.216-11.92 15.536-1.664 6.16-1.040 12.88 2.208 18.864 2.064 3.008 1.808 7.136-0.896 9.808-3.008 3.008-7.872 3.008-10.88 0-0.656-0.688-1.168-1.456-1.568-2.304-5.312-9.616-6.368-20.48-3.712-30.336 2.656-9.936 9.040-18.88 18.56-24.544 0.32-0.224 0.624-0.4 0.992-0.56l542.832-313.632c0.384-0.24 0.736-0.464 1.152-0.656 9.616-5.312 20.48-6.336 30.352-3.712 9.936 2.656 18.88 9.056 24.544 18.56 2.048 3.008 1.76 7.12-0.896 9.776-3.024 3.008-7.888 3.008-10.896 0zM483.421 293.868c-1.872-3.904-3.040-7.968-3.536-12.032-0.304-2.464 0.032-5.216-1.28-7.392-1.248-2.080-3.504-3.472-6.096-3.472-2.464 0-4.336 1.392-6.368 2.56l-96.816 55.968c-3.312 1.904-6.576 3.312-6.576 7.872 0 1.248 0.304 2.4 0.896 3.44 0.944 1.68 4.688 4.4 6.224 5.936 2.352 2.336 4.432 5.024 6.176 8.032 8.624 14.992 5.968 33.344-5.296 45.312-1.36 1.456-2.496 2.224-3.136 4.304-0.176 0.656-0.288 1.344-0.288 2.032 0 1.568 0.512 3.008 1.376 4.192 1.104 1.536 2.544 2.16 4.144 3.072l90.544 51.68c1.248 0.72 2.928 1.808 4.272 2.256 0.688 0.224 1.408 0.368 2.192 0.368 1.44 0 2.752-0.432 3.872-1.152 1.6-1.056 2.224-2.352 3.168-3.936 11.904-20.352 19.552-42.704 22.8-65.664 4.848-34.56-0.368-70.592-16.272-103.376zM663.021 765.1c-37.152-21.456-49.872-68.976-28.432-106.144 21.472-37.152 69.008-49.904 106.176-28.448 37.152 21.456 49.872 68.992 28.432 106.144-21.472 37.168-68.96 49.904-106.176 28.448z" />
<glyph unicode="&#xe607;" glyph-name="uniE607" d="M524.872 675.032c42.032-8.704 83.2 18.288 91.92 60.32 8.688 42.032-18.32 83.152-60.336 91.84-42.032 8.72-83.168-18.272-91.856-60.304-8.736-42.032 18.272-83.168 60.272-91.856zM610.936 452.696l-67.168-113.84c-0.72-1.216-1.312-2.352-2.448-3.28-1.216-1.040-2.8-1.632-4.528-1.632-2.896 0-4.096 1.376-6.224 2.88-11.808 8.192-27.808 9.376-41.088 1.648-4.72-2.72-8.64-6.272-11.648-10.432-1.2-1.6-1.888-3.024-3.76-4.096-1.024-0.592-2.208-0.912-3.472-0.912-1.12 0-2.208 0.288-3.184 0.752-2.416 1.232-3.376 3.536-4.656 5.76l-47.312 81.616c-1.008 1.728-1.76 2.784-1.76 4.88 0 2.848 1.648 5.28 4.064 6.432 1.936 0.88 4.624 0.688 6.752 0.912 6.288 0.688 12.432 2.976 17.936 6.88 24.56 17.456 52.352 29.28 81.424 35.056 26.736 5.312 54.48 5.472 81.648 0.224 2.144-0.416 3.76-0.624 5.456-2.32 1.28-1.28 2.064-3.056 2.064-4.992 0-2.32-1.008-3.696-2.096-5.536zM769.736 489.32c-2.32 11.312-5.184 21.936-8.592 31.776-8.864 25.696-21.696 49.728-37.936 71.264-9.456 12.464-20.016 24.112-31.552 34.704-1.632 1.472-3.488 2.816-4.32 4.912-0.272 0.784-0.464 1.664-0.464 2.528 0 1.072 0.256 2.064 0.656 2.976 0.784 1.648 2.4 3.024 3.696 4.304 5.536 5.568 10.88 11.44 15.936 17.6 15.152 18.496 27.36 38.816 36.288 60.256 8.944 21.456 14.72 44.368 17.136 68.064 2.048 21.024-13.344 39.808-34.416 41.872-21.072 2.096-39.856-13.312-41.92-34.384-1.6-15.808-5.568-31.344-11.712-46.128-6.16-14.8-14.4-28.624-24.576-40.992-28.928-35.312-70.128-56.32-113.888-61.776-44.192-5.568-90.8 4.688-130 31.936-17.424 12.096-41.392 7.808-53.488-9.632-12.128-17.408-7.792-41.344 9.616-53.472 55.392-38.496 121.056-52.96 183.184-45.152 23.28 2.912 46.112 8.976 67.808 18.032 0.944 0.432 1.968 0.688 3.056 0.688 1.68 0 3.264-0.624 4.464-1.6h0.048c0.768-0.624 1.552-1.216 2.4-1.808 15.696-10.928 29.408-24.192 40.752-39.216 0.96-1.248 1.904-2.56 2.848-3.872h-0.048c0.88-1.184 1.424-2.656 1.424-4.256 0-3.904-3.168-7.056-7.072-7.056-0.848 0-1.648 0.144-2.416 0.4-8.736 2.912-17.68 5.408-26.768 7.536-40.224 9.248-81.328 9.712-120.736 1.872-24.096-4.752-47.616-12.656-69.936-23.472-1.712-0.848-2.928-1.584-4.96-1.584-1.424 0-2.752 0.4-3.872 1.12-1.664 1.088-2.25 2.588-3.216 4-3.817 5.579-10.128 17.568-10.128 17.568-10.528 18.336-33.936 24.656-52.272 14.112-4.688-2.688-8.56-6.208-11.6-10.272-0.72-0.976-1.376-2.064-2.304-2.848-1.264-1.056-2.864-1.68-4.608-1.68-1.536 0-2.976 0.464-4.112 1.28-1.424 1.024-2.032 2.176-2.848 3.584l-71.12 122.624c-0.064 0.128-0.128 0.224-0.224 0.32-3.344 6.032-3.968 12.88-2.32 19.056 1.696 6.352 5.792 12 11.904 15.536 3.664 2.128 4.928 6.816 2.784 10.496-2.128 3.664-6.816 4.88-10.464 2.784-9.776-5.648-16.352-14.72-19.056-24.848-2.656-9.936-1.6-20.864 3.84-30.56 0.096-0.16 0.16-0.304 0.24-0.496l330.928-570.752c5.648-9.744 14.736-16.336 24.848-19.024 10.064-2.72 21.232-1.568 31.008 4.080 3.648 2.096 4.928 6.784 2.816 10.448-2.096 3.68-6.784 4.928-10.448 2.848-6.112-3.536-13.088-4.256-19.44-2.544-6.304 1.696-11.968 5.792-15.488 11.904l-63.12 108.848c-1.248 2.128-2.896 4.448-2.896 7.008 0 2.464 1.264 4.688 3.232 5.968 2.208 1.376 5.216 1.152 7.696 1.584 4.304 0.752 8.592 2.256 12.592 4.592 2.368 1.376 4.544 2.944 6.48 4.72 4.272 3.008 8 6.944 10.832 11.792l107.872 182.832c0.896 1.504 1.696 3.168 3.088 4.256 1.232 0.944 2.72 1.504 4.368 1.504 0.608 0 1.168-0.096 1.696-0.224 1.504-0.336 2.304-1.024 3.472-1.936 5.248-4 10.24-8.256 15.072-12.72 15.488-14.432 39.776-13.568 54.224 1.936 16.512 17.792 10.544 52.784 6.032 74.784z" />
<glyph unicode="&#xe608;" glyph-name="uniE608" d="M318.32 681.259c1.856 0 3.568-0.72 4.816-1.872 0.976-0.944 1.472-1.904 2.128-3.104l44.816-81.12c10.192-18.592 33.552-25.376 52.144-15.152 18.56 10.224 25.344 33.536 15.152 52.128l-49.056 88.72c-12.176 22-20.704 41.408-39.584 59.088-23.808 22.368-52.128 38.624-82.592 47.936-36.544 11.216-76.144 12.496-114.64 2.592-20.448-5.216-32.848-26.064-27.616-46.56 5.216-20.496 26.080-32.848 46.576-27.632 24.512 6.32 49.76 5.472 73.136-1.68 1.696-0.528 3.376-1.056 5.040-1.664 3.232-1.12 6.656-1.936 8.080-5.424 0.368-0.848 0.56-1.76 0.56-2.656 0-1.44-0.432-2.784-1.136-3.888-1.376-2.080-3.072-2.656-5.2-3.456l-37.536-15.040c-17.040-6.816-36.976-18.464-41.696-37.648-4.56-18.512 5.104-37.136 22.032-44.416 1.92-0.8 3.728-1.184 5.264-2.784 1.184-1.28 1.936-2.992 1.936-4.864 0-2.16-0.96-4.096-2.448-5.376-0.928-0.784-1.744-1.12-2.752-1.536l-48.992-19.584c-19.648-7.888-29.2-30.192-21.328-49.856 4.704-11.744 13.904-18.896 24.288-24.896l247.408-142.592c7.168-4.128 15.376-5.008 22.784-3.008 7.408 1.968 14.096 6.816 18.224 14.032 2.096 3.664 0.848 8.336-2.816 10.432-3.68 2.128-8.368 0.848-10.464-2.8-2.032-3.504-5.28-5.856-8.912-6.816-3.68-1.008-7.68-0.56-11.184 1.44l-49.584 28.592c-3.088 1.808-5.712 3.248-5.712 7.408 0 1.28 0.336 2.432 0.928 3.456 1.008 1.888 3.568 3.136 5.28 4.192 4.992 3.216 9.376 7.632 12.544 13.12 10.592 18.352 4.368 41.856-13.968 52.448l-10.032 5.776c-2.656 1.536-4.48 3.248-4.48 6.656 0 1.312 0.416 3.12 0.656 4.432 2.576 16.16 2.72 32.544 0.448 48.576-4.352 31.088-17.696 60.992-39.488 85.584-1.792 2.032-3.344 3.344-3.344 6.448 0 1.808 0.688 3.488 1.856 4.736 1.6 1.792 4.192 2.512 6.384 3.344l7.792 3.136c1.232 0.464 3.040 1.152 4.288 1.152zM261.584 567.099c2.688-1.28 3.728-4.208 3.936-7.552 0.928-14.624-1.904-29.568-8.576-43.312-1.968-4.032-3.104-8.288-3.6-12.512-0.144-1.488-0.096-3.056-0.672-4.496-0.976-2.656-3.584-4.528-6.592-4.528-1.984 0-2.96 0.656-4.576 1.568l-52.384 30.176c-2.272 1.312-3.968 2.032-4.992 4.72-0.256 0.784-0.384 1.6-0.384 2.448 0 1.424 0.384 2.736 1.104 3.872 1.68 2.496 4.688 3.312 7.344 4.336l59.648 23.84c3.168 1.28 6.32 3.072 9.744 1.44zM548.384 797.915c21.472-37.12 8.72-84.688-28.432-106.128-37.2-21.472-84.704-8.752-106.144 28.448-21.488 37.152-8.72 84.688 28.416 106.112 37.152 21.472 84.704 8.752 106.16-28.432zM890.912 670.379c21.456-37.152 8.72-84.688-28.432-106.112-37.152-21.472-84.688-8.72-106.192 28.4-21.44 37.184-8.72 84.72 28.48 106.192 37.184 21.424 84.656 8.72 106.144-28.48zM597.104 205.691c2.848 0 5.28 1.664 6.384 4.064 0.864 1.792 0.784 4.16 1.088 6.064 0.752 5.216 2.592 10.352 5.568 15.072 17.056 26.656 25.2 57.152 24.496 87.488-0.432 17.376-3.776 34.72-10 51.248-0.752 1.984-1.344 3.984-2.944 5.44-1.248 1.136-2.96 1.824-4.768 1.824-2.192 0-3.536-0.944-5.344-1.968l-79.504-45.376c-2-1.168-3.696-1.888-4.88-3.968-0.56-1.072-0.928-2.224-0.928-3.44 0-0.944 0.208-1.824 0.496-2.592 0.72-1.92 2.336-3.136 3.648-4.608 10.624-11.968 12.976-29.872 4.544-44.528-2.384-4.176-5.536-7.776-9.040-10.656-1.712-1.344-3.12-1.968-4.096-4-0.448-0.896-0.72-2-0.72-3.088 0-1.408 0.384-2.688 1.104-3.776 1.088-1.696 2.304-2.256 3.904-3.2l65.552-37.872c1.888-1.088 3.136-2.128 5.44-2.128zM720.944 141.035c-0.512-0.992-0.848-2.144-0.848-3.376 0-3.488 1.936-5.152 4.624-6.72l92.016-53.328c0.128-0.064 0.272-0.128 0.4-0.224 6-3.344 12.816-4 19.008-2.32 6.336 1.696 12 5.792 15.52 11.904 0.384 0.608 0.784 1.104 1.2 1.568v0.032c3.024 3.008 7.872 3.008 10.896 0 2.656-2.688 2.944-6.816 0.912-9.776-5.664-9.536-14.624-15.904-24.56-18.56-9.872-2.656-20.72-1.6-30.32 3.712-0.416 0.192-0.784 0.368-1.152 0.624l-505.248 291.968c-9.776 5.664-16.352 14.752-19.040 24.848-2.656 9.872-1.616 20.72 3.68 30.336 1.232 2.688 3.92 4.56 7.040 4.56 4.24 0 7.664-3.424 7.664-7.68 0-1.632-0.496-3.12-1.344-4.368-3.248-5.968-3.872-12.72-2.192-18.88 1.6-6.16 5.568-11.728 11.456-15.28 0.304-0.128 0.608-0.32 0.864-0.496l85.232-49.136c2.16-1.248 4.096-2.688 6.688-2.688 2.368 0 4.432 1.136 5.744 2.88 2.064 2.88 1.248 6.368 1.6 9.744 1.312 11.824 8.064 22.816 19.216 29.168l128.544 73.376c2.096 1.216 3.904 2 5.040 4.304 0.464 0.944 0.736 2 0.736 3.12 0 2.096-0.928 3.968-2.336 5.264-1.632 1.456-5.12 2.928-7.024 3.872-15.536 7.488-32.096 13.456-39.232 25.84-10.624 18.336-4.368 41.808 13.968 52.432l87.536 51.536c1.968 1.152 3.536 1.872 4.624 4.096 0.464 0.928 0.72 2 0.72 3.088 0 1.008-0.224 1.904-0.56 2.752-1.376 3.248-4.064 3.872-7.088 4.976-1.536 0.56-3.072 1.056-4.656 1.552-18.256 5.6-38.032 6.256-57.2 1.312-20.464-5.216-41.328 7.168-46.544 27.664-5.248 20.464 7.136 41.312 27.616 46.56 33.152 8.496 67.216 7.408 98.624-2.256 22.144-6.768 43.008-17.776 61.296-32.656 23.808-19.312 28.64-29.776 43.28-56.24l95.696-173.040c10.224-18.592 3.408-41.936-15.152-52.16-18.592-10.176-41.904-3.36-52.128 15.232l-81.728 147.776c-0.688 1.216-2.128 3.664-3.152 4.4-1.168 0.944-2.72 1.504-4.32 1.504-2.336 0-3.808-1.056-5.712-2.16l-33.792-20.336c-3.2-1.872-6.224-3.28-6.224-7.696 0-4.080 3.552-6.304 6.288-8.8 11.856-11.040 22.544-23.2 31.792-36.32 27.12-38.432 41.28-83.344 42.336-128.656 0.688-29.808-4.432-59.712-15.248-88.128-0.72-1.84-1.872-4.032-1.872-6 0-1.84 0.688-3.52 1.872-4.784 0.976-1.088 2.464-1.808 3.744-2.528l19.408-11.216c18.288-10.624 24.592-34.096 13.968-52.4-2.272-3.888-5.056-7.2-8.272-9.936-1.472-1.264-2.912-2.064-3.904-3.856z" />
<glyph unicode="&#xe609;" glyph-name="uniE609" d="M860.925 789.179c37.168-21.44 49.872-68.96 28.448-106.128-21.456-37.184-68.96-49.904-106.144-28.432s-49.904 68.976-28.464 106.16c21.456 37.12 69.024 49.872 106.16 28.4zM324.749 233.963c0.624-1.056 1.008-2.32 1.008-3.664 0-3.616-2.032-5.248-4.832-6.864l-194.864-112.72c-3.648-2.128-4.896-6.816-2.832-10.496 2.144-3.696 6.848-4.912 10.528-2.784l747.552 432.464c0.144 0.096 0.272 0.192 0.448 0.288 9.504 5.68 15.968 14.624 18.624 24.56 2.688 10.096 1.536 21.248-4.112 30.992-0.32 0.592-0.784 1.136-1.232 1.632l0.032 0.032c-3.008 2.96-7.872 2.96-10.896 0-2.656-2.688-2.944-6.848-0.864-9.84 3.264-5.968 3.888-12.72 2.208-18.848-1.632-6.16-5.568-11.696-11.344-15.216-0.32-0.16-0.688-0.352-1.008-0.576l-378.064-218.704c-1.504-0.88-2.528-1.44-4.368-1.44-2.72 0-5.104 1.52-6.288 3.84-1.344 2.592-0.528 5.312-0.432 8.128 0.144 7.216-1.696 14.528-5.824 21.12-7.84 12.624-21.808 19.088-35.648 18-1.904-0.16-3.040-0.496-5.008 0.224-2.688 0.96-4.656 3.552-4.656 6.656 0 2.4 1.2 3.904 2.416 5.872 5.488 8.992 11.216 17.84 17.152 26.592 32.336 47.568 70.992 91.040 115.168 129.12 21.728 18.752 44.384 35.92 67.84 51.408 23.152 15.28 47.936 29.376 74.112 42.192 19.104 9.28 27.040 32.288 17.76 51.376-8.48 17.344-28.256 25.472-46.128 19.808-3.104-0.064-6.288-0.496-9.408-1.408l-300.992-83.68c-20.384-5.664-32.352-26.752-26.704-47.184 5.632-20.416 26.736-32.384 47.136-26.72l69.648 19.376c1.728 0.464 3.2 0.96 4.912 0.96 0.432 0 0.848-0.032 1.248-0.128 3.312-0.592 5.808-3.456 5.808-6.928 0-1.072-0.208-2.064-0.624-2.976-0.688-1.472-1.904-2.528-2.992-3.648-29.504-30.528-56.336-63.504-80.16-98.624-36.24-53.28-65.456-111.2-86.752-172.352-6.288-18 1.632-37.504 17.856-46.304 1.92-1.008 3.344-1.504 4.576-3.536z" />
<glyph unicode="&#xe60a;" glyph-name="uniE60A" d="M593.198 837.265c42.912 0 77.696-34.784 77.696-77.696 0-42.928-34.784-77.712-77.696-77.712s-77.696 34.784-77.696 77.712c0 42.912 34.784 77.696 77.696 77.696zM550.83 78.641c0.96 0 1.904-0.208 2.704-0.544 1.344-0.544 2.256-1.536 3.408-2.416 11.568-8.832 27.68-10.656 41.312-3.376l104.352 55.888c10.944 5.856 20.48 18.432 26 29.568 11.936 24.16 14.784 50.832 9.44 75.712-3.184 14.704-9.184 28.784-17.824 41.392-1.44 2.112-2.96 4.192-4.576 6.224-0.656 0.816-1.84 2.416-2.176 3.296-0.336 0.8-0.512 1.68-0.512 2.576 0 1.456 0.464 2.816 1.2 3.92 1.072 1.6 2.208 2.144 3.824 3.008l5.76 3.104c1.584 0.8 3.408 0.992 5.104 0.544 0.992-0.288 1.92-0.768 2.672-1.408 1.296-1.104 2.192-2.864 3.088-4.32 1.856-3.12 3.632-6.304 5.344-9.584 16.944-32.928 23.104-71.472 15.552-110.016-4.048-20.8 9.52-40.992 30.336-45.072 20.848-4.064 41.024 9.536 45.072 30.384 10.944 55.84 1.952 111.872-22.768 159.872-21.056 40.8-53.488 75.76-94.72 99.792-1.84 1.056-3.776 1.904-4.992 3.696-1.040 1.552-1.312 3.52-1.696 5.344-5.088 22.048-13.152 43.264-23.888 62.976-20.576 37.68-50.88 69.936-88.784 92.816-5.264 3.152-4.752 3.584-6.656 10.272-6.544 22.56-16.256 43.952-28.72 63.616-32.672 51.424-84.368 90.784-147.856 106.688-16.544 4.16-33.664 6.544-51.104 7.152-17.504 0.624-34.72-0.528-51.408-3.488-20.88-3.632-34.896-23.536-31.264-44.448 3.68-20.896 23.6-34.896 44.48-31.248 12.064 2.144 23.968 3.008 35.504 2.592 11.616-0.4 23.376-2.096 35.152-5.040 7.568-1.888 14.88-4.272 21.936-7.12 2.080-0.8 4.080-1.648 5.456-3.024 1.312-1.328 1.904-3.184 1.824-5.040-0.256-4.272-3.104-5.552-6.448-7.344l-45.6-24.464c-3.936-2.096-7.344-4.784-10.224-7.888-2.656-2.912-7.472-9.024-9.856-12.352l-39.904-54.912c-10.688-14.672-9.12-14.336-25.408-23.072l-103.792-55.616c-14.528-7.728-22.048-23.52-19.936-38.944 0.304-2.16 0.848-3.44 0-5.664-0.352-0.992-0.944-1.824-1.696-2.56-0.912-0.896-2.016-1.424-3.12-2.016l-29.392-15.76c-3.776-2-5.184-6.64-3.184-10.368 1.984-3.728 6.624-5.12 10.384-3.136l29.472 15.76c1.792 0.96 3.28 1.936 5.44 1.936 1.040 0 2.064-0.224 2.976-0.656 1.312-0.624 3.024-2.224 4.24-3.104 11.504-8.544 27.392-10.272 40.88-3.072l105.264 56.4c19.776 10.592 26.064 11.84 39.44 30.24l36.496 50.176c1.072 1.504 2.096 3.216 3.728 4.224 1.056 0.656 2.336 1.024 3.68 1.024 2.688 0 4.352-1.408 6.304-3.008 6.944-5.776 11.488-13.52 13.248-21.856 1.12-5.264 1.216-10.72 0.208-16.032-1.936-9.936-3.136-9.28-11.344-13.664l-38.464-20.576c-13.696-7.312-21.136-21.744-20.176-36.32 0.096-1.552 0.384-2.864 0.064-4.432-0.288-1.12-0.8-2.16-1.552-2.992-0.944-1.152-1.856-1.632-3.088-2.288l-34.096-18.256c-3.76-2-5.152-6.64-3.168-10.368 2-3.728 6.656-5.12 10.352-3.136l32.624 17.44c1.696 0.912 2.864 1.664 4.864 1.664 2.896 0 4.128-1.28 6-3.056 11.632-10.912 29.376-13.792 44.24-5.856 2 1.072 4.032 2.496 6.432 2.496 3.888 0 7.040-3.216 7.040-7.12 0-1.68-0.592-3.248-1.584-4.464-4.864-6.8-6.048-10.72-13.856-14.88l-112.736-60.384c-14.336-7.648-21.824-23.12-20-38.336 0.112-1.136 0.512-2.656 0.512-3.792 0-1.856-0.72-3.552-1.888-4.816-0.976-1.024-1.952-1.504-3.168-2.144l-29.6-15.888c-3.776-1.984-5.184-6.624-3.184-10.352 2-3.744 6.64-5.152 10.4-3.152l30.112 16.144c1.584 0.848 2.784 1.584 4.768 1.584 1.056 0 2.048-0.224 2.928-0.624 1.248-0.56 2-1.36 3.072-2.208 11.584-9.392 28.112-11.488 42.112-4.032l105.328 56.464c10.88 5.808 27.072 13.2 34.064 22.864l42.448 58.4c1.824 2.528 3.328 4.4 6.784 4.4 2.336 0 3.584-0.912 5.312-2.256 7.504-5.84 12.352-13.968 14.224-22.688 1.072-4.864 1.216-9.936 0.4-14.88-1.552-9.504-2.032-9.696-10.176-14.032l-39.616-21.216c-13.44-7.184-20.832-21.2-20.224-35.44 0.080-2.224 0.624-4.24-0.24-6.384-0.352-0.88-0.88-1.696-1.552-2.352-0.88-0.928-1.856-1.36-2.928-1.952l-34.112-18.288c-3.76-1.984-5.152-6.624-3.152-10.352 1.984-3.744 6.64-5.152 10.336-3.152l32.4 17.36c1.792 0.944 3.184 1.872 5.296 1.872 1.168 0 2.208-0.272 3.2-0.752 1.344-0.672 2.112-1.696 3.216-2.672 11.616-10.624 29.104-13.328 43.792-5.504l23.84 12.784c2.304 1.232 7.424 4.368 10.016 4.368 3.92 0 7.088-3.168 7.088-7.072 0-2.928-1.856-4.848-3.456-7.056l-19.648-27.040c-10.848-14.912-12.896-13.84-28.688-22.272l-149.824-80.304c-14.224-7.6-21.728-22.928-20.048-38.048 0.32-2.72 1.056-4.864-0.080-7.152-1.024-2.112-2.464-2.88-4.432-3.936l-32.88-17.616c-3.744-1.984-5.152-6.624-3.152-10.352 1.968-3.744 6.624-5.152 10.352-3.168l32.608 17.456c5.6 2.928 7.040 2.752 12.128-1.2 11.568-8.992 27.808-10.912 41.552-3.568l165.088 88.464c9.136 4.848 20.704 10.736 26.656 18.896l42.176 58.032c1.936 2.64 3.408 4.704 7.056 4.704 0.8 0 1.536-0.128 2.256-0.368 1.776-0.592 4-2.544 5.248-3.696 6.256-5.632 10.384-12.96 12.048-20.816 1.424-6.656 1.2-13.648-0.88-20.288-0.976-2.96-3.792-5.872-6.528-7.344l-93.296-50c-14.464-7.712-21.968-23.376-19.968-38.704 0.256-2.144 0.928-3.984 0.336-6.144-0.24-0.816-0.592-1.552-1.072-2.208-1.232-1.712-2.736-2.352-4.512-3.296l-29.376-15.712c-3.712-2-5.136-6.64-3.152-10.368s6.64-5.152 10.368-3.152l30.816 16.512c1.76 0.912 3.072 1.808 5.168 1.808zM627.374 332.241l-3.296-1.744c-1.904-0.992-3.568-2.16-5.824-2.16-3.904 0-7.056 3.184-7.056 7.088 0 1.616 0.848 3.424 1.344 4.96 6.32 19.648 7.152 40.272 2.944 59.824-3.52 16.48-10.656 32.192-21.072 45.888-0.896 1.216-2.816 3.344-3.44 4.784-0.32 0.832-0.56 1.776-0.56 2.752 0 1.68 0.592 3.232 1.584 4.432 1.136 1.456 2.64 2.112 4.208 2.928l3.616 1.952c3.008 1.616 5.712 2.4 8.8 0.24 1.488-1.056 2.24-2.592 3.168-4.128 1.296-2.144 2.544-4.304 3.744-6.496 13.744-25.12 21.088-53.728 20.672-83.296-0.096-8.096-0.832-16.16-1.76-24.192-0.128-1.184-0.24-2.368-0.384-3.52-0.032-0.48-0.096-0.896-0.128-1.328-0.592-4.992-2.48-5.776-6.56-7.984zM514.574 504.193l-2.688-1.456c-2.112-1.136-3.664-1.792-6.144-1.136-2.24 0.624-4.064 2.304-4.848 4.512-0.816 2.384-0.032 5.408 0.288 7.792 1.664 13.056 1.056 26.224-1.68 38.896-3.728 17.28-11.344 33.696-22.576 47.84-1.472 1.888-2.512 3.104-2.512 5.616 0 1.92 0.736 3.6 1.92 4.88 1.056 1.088 2.24 1.6 3.504 2.288l3.904 2.112c1.648 0.816 2.736 1.504 4.656 1.504 1.776 0 3.408-0.656 4.656-1.712 1.12-1.008 1.856-2.416 2.624-3.664 17.616-29.024 26.496-63.376 24.096-98.832-0.32-4.928-0.768-6.272-5.2-8.64zM708.926 684.913c42.928 0 77.744-34.784 77.744-77.712 0-42.912-34.816-77.68-77.744-77.68-42.88 0-77.696 34.768-77.696 77.68 0 42.928 34.816 77.712 77.696 77.712zM824.35 525.105c42.928 0 77.712-34.8 77.712-77.712s-34.784-77.728-77.712-77.728c-42.896 0-77.68 34.816-77.68 77.728s34.784 77.712 77.68 77.712z" />
<glyph unicode="&#xe60b;" glyph-name="uniE60B" d="M703.319 591.258c43.056 0 78 34.944 78 78 0 43.072-34.944 77.968-78 77.968s-77.984-34.896-77.984-77.968c0-43.056 34.928-78 77.984-78zM760.327 453.482c-0.576-0.976-1.728-2.096-2.512-2.88l-86.784-86.928c-2.432-2.512-4.88-5.76-8.672-5.76-1.264 0-2.416 0.32-3.456 0.912-2.368 1.312-4.4 5.184-5.904 7.408-11.088 16.208-24.224 30.928-38.992 43.712-16.624 14.384-35.344 26.384-55.616 35.44-2.256 1.024-6.688 2.656-8.128 4.72-0.8 1.12-1.28 2.528-1.28 4.064 0 1.152 0.304 2.272 0.8 3.248 1.056 2.064 5.168 4.88 7.024 6.256 3.76 2.736 7.632 5.344 11.584 7.776 17.824 10.88 37.456 18.496 58.048 22.256 26.992 4.896 54.336 3.152 79.856-4.608 17.616-5.376 34.432-13.648 49.648-24.624 1.696-1.248 3.504-2.336 4.464-4.24 0.544-0.976 0.816-2.096 0.816-3.28 0-1.248-0.336-2.448-0.896-3.472zM828.663 503.642c-28.528 27.712-62.944 47.712-100.064 58.992-37.008 11.28-76.656 13.872-115.744 6.72-30.32-5.536-58.944-16.528-84.544-32.192-18.848-11.552-36.16-25.616-51.36-41.904l-281.888-280.592c-15.088-14.96-15.152-39.376-0.16-54.432 15.008-15.072 39.36-15.136 54.416-0.16l222.896 221.84c7.44 7.408 8.224 5.968 18.48 4.224 27.488-4.624 52.592-16.784 72.96-34.384 16.096-13.968 29.264-31.312 38.256-51.184 0.368-0.816 0.56-1.776 0.56-2.752 0-1.712-0.624-3.312-1.632-4.528l-53.344-53.472c-1.808-1.808-3.616-3.616-5.584-5.248-5.472-4.432-12.16-7.408-19.472-8.304-2.496-0.32-5.312-0.32-7.872-0.32h-107.936c-21.312 0-38.576-17.248-38.576-38.592 0-21.28 17.264-38.56 38.576-38.56h50.032c3.312 0 6.592-0.128 9.872 0.256 7.712 0.768 14.752 3.84 20.416 8.528 2.064 1.68 4.016 3.744 5.92 5.648l107.76 107.968c1.28 1.248 3.008 1.968 4.928 1.968 3.44 0 6.288-2.432 6.944-5.68h0.032l0.064-0.224c2.112-10.848 3.072-21.536 2.864-31.904-0.208-10.256-1.584-20.88-4.176-31.648-1.056-4.512-2.304-11.92-2.304-16.352 0-21.28 17.264-38.56 38.576-38.56h67.536c21.312 0 38.608 17.28 38.608 38.56 0 21.344-17.296 38.592-38.608 38.592h-10.656c-4.16 0-8.528-0.752-11.088 3.376-1.568 2.56-1.040 16.656-1.264 21.088-0.528 10.688-1.808 21.296-3.84 31.6-3.584 18.128-9.216 35.376-16.72 51.568-0.72 1.584-1.312 2.592-1.312 4.4 0 0.976 0.176 1.904 0.528 2.752 0.656 1.536 2.48 3.248 3.616 4.4l95.68 95.888c1.024 0.992 2.464 2.56 3.712 3.184 0.944 0.464 2.032 0.752 3.2 0.752 0.752 0 1.488-0.128 2.176-0.352 1.184-0.368 2.656-1.44 3.76-2.064 14.864-8.368 34.048-6.128 46.512 6.688 14.816 15.216 14.48 39.6-0.736 54.416z" />
<glyph unicode="&#xe60c;" glyph-name="uniE60C" d="M520.188 824.677c42.032 8.704 83.184-18.288 91.872-60.304 8.704-42.032-18.272-83.152-60.304-91.856s-83.152 18.288-91.872 60.304c-8.72 42.032 18.304 83.168 60.304 91.856zM872.108 381.093c4.272 0 7.712-3.456 7.712-7.696s-3.44-7.68-7.712-7.68c-83.728 0-159.536-33.936-214.416-88.816-54.896-54.88-88.848-130.688-88.848-214.416 0-4.256-3.44-7.696-7.68-7.696s-7.696 3.44-7.696 7.696c0 87.984 35.696 167.616 93.328 225.296 57.68 57.648 137.328 93.312 225.312 93.312zM678.828 590.085c3.216 0 5.936-2.16 6.784-5.088 0.416-1.424 0.272-3.344 0.272-4.784l-0.096-74.336c0-4.24 3.44-7.664 7.632-7.664 4.24 0 7.68 3.424 7.68 7.664l0.128 90.48c0.032 1.408-0.032 3.28 0.384 4.624 0.272 0.912 0.768 1.744 1.392 2.448 0.992 1.184 2.512 1.984 3.824 2.8 3.232 2.064 6.464 4.176 9.648 6.352 17.408 12.112 21.712 36.080 9.584 53.504-4.4 6.336-10.368 10.944-17.024 13.648-1.536 0.608-3.536 1.088-4.832 2.080-0.8 0.608-1.488 1.376-1.968 2.256-1.136 2.096-0.816 4.512-0.816 6.8v11.984c0 4.24-3.392 7.664-7.632 7.664s-7.68-3.424-7.68-7.664l-0.032-13.696c0-1.904 0.16-3.472-0.704-5.264-0.336-0.784-0.864-1.488-1.488-2.064-1.376-1.36-2.96-1.696-4.656-2.448-2.304-0.976-4.512-2.208-6.656-3.68-39.2-27.248-85.808-37.488-130-31.936-43.744 5.488-84.944 26.48-113.904 61.792-10.16 12.368-18.4 26.176-24.56 40.992-6.144 14.768-10.112 30.304-11.696 46.112-0.336 3.248-1.040 6.352-2.096 9.248-0.528 1.536-1.152 2.672-1.152 4.416 0 0.88 0.144 1.728 0.432 2.512 0.288 0.8 0.816 1.6 1.232 2.32l10.72 18.544c2.144 3.648 0.896 8.352-2.784 10.464-3.632 2.144-8.352 0.88-10.48-2.784l-6.016-10.352c-1.632-2.864-3.408-4.976-6.928-4.976-2.304 0-3.888 1.2-5.888 2.048-5.76 2.512-12.256 3.632-18.944 2.96-21.104-2.048-36.496-20.832-34.448-41.888 1.664-16.384 4.944-32.384 9.76-47.792 0.4-1.28 0.96-2.8 0.96-4.144 0-2.192-0.896-3.456-1.936-5.248l-179.648-309.904c-2.096-3.664-0.848-8.352 2.816-10.464 3.68-2.144 8.368-0.896 10.464 2.784l167.744 289.344c0.976 1.664 1.808 3.52 3.44 4.688 1.168 0.832 2.608 1.36 4.192 1.36 4.352 0 5.872-3.008 7.584-6.368 7.728-14.944 17.104-29.216 28.048-42.544 5.344-6.528 11.024-12.72 16.928-18.56 0.976-1.024 1.968-1.84 2.624-3.136 0.48-0.976 0.784-2.064 0.784-3.232 0-1.232-0.336-2.368-0.88-3.376-0.672-1.248-1.52-1.936-2.528-2.864-10.624-9.648-20.496-20.176-29.408-31.504-18-22.784-32.112-48.304-41.504-75.632-6.304-18.384-10.496-37.568-12.528-57.248-1.936-18.672-3.776-57.008 4.912-72.336 3.376-5.952 8.528-10.896 16.464-14.272 25.408-10.752 44.032 5.808 63.44 18.96l60.064 40.672c2.416 1.632 4.944 3.92 7.968 3.92 1.376 0 2.688-0.4 3.744-1.072 2.384-1.488 2.912-3.552 3.872-5.952l50.736-126.96c4.112-10.304 9.584-26.32 16.464-34.432 2.768-3.28 6.144-6.16 10.080-8.448 4.784-2.8 9.952-4.4 15.136-4.96 2.848-0.304 5.744 0.192 8.192-1.648 1.712-1.28 2.816-3.344 2.816-5.648 0-2.288-1.008-3.68-2.080-5.52l-99.392-171.488c-2.128-3.648-0.88-8.352 2.768-10.48 3.664-2.128 8.384-0.864 10.512 2.8l325.12 560.848c0.096 0.16 0.16 0.336 0.256 0.48 5.424 9.68 6.496 20.656 3.84 30.592-2.72 10.112-9.28 19.184-19.072 24.848-3.648 2.112-8.336 0.848-10.464-2.8-2.128-3.68-0.88-8.368 2.784-10.496 6.128-3.52 10.224-9.2 11.904-15.52 1.68-6.208 1.024-13.024-2.304-19.056-0.080-0.112-0.16-0.224-0.224-0.336l-150.624-259.808c-1.12-1.968-2.512-4.656-4.624-5.792-0.992-0.544-2.096-0.848-3.344-0.848-5.024 0-6.192 4.080-8.688 7.408-3.024 4.032-6.848 7.536-11.472 10.208-11.216 6.512-24.384 6.704-35.344 1.664-3.76-1.76-7.008-4-10.848-0.928-1.936 1.536-2.528 3.792-3.424 6l-46.016 115.072c-3.52 8.832-5.744 16.288-12.896 23.136-10.688 10.288-26.848 13.6-41.44 6.752-9.376-4.4-18.064-11.872-27.584-18.272l-27.488-18.64c-2.272-1.568-4.72-3.712-7.648-3.712-3.904 0-7.072 3.168-7.072 7.072 0 2.144 1.424 4.768 2.32 6.72 6.096 13.632 13.744 26.288 22.752 37.68 10.976 13.904 24.192 26.272 39.312 36.64 0.976 0.656 2.416 1.728 3.504 2.176 0.848 0.368 1.776 0.544 2.752 0.544 1.584 0 2.528-0.448 3.904-1.024 21.344-8.848 43.808-14.752 66.72-17.632 46.864-5.872 95.776 0.928 140.704 21.136 1.648 0.736 2.944 1.504 4.864 1.504z" />
<glyph unicode="&#xe60d;" glyph-name="uniE60D" d="M862.385 746.376c37.152-21.456 49.904-68.976 28.432-106.16-21.424-37.152-68.96-49.888-106.128-28.432-37.168 21.472-49.92 68.992-28.448 106.176 21.456 37.136 68.992 49.888 106.144 28.416zM654.945 179.48c-0.368-0.848-0.592-1.824-0.592-2.832 0-1.024 0.224-1.984 0.592-2.864 1.216-2.72 3.872-3.776 6.288-5.168l158.336-90.848c0.16-0.096 0.352-0.192 0.496-0.288 5.984-3.296 12.752-3.92 18.928-2.256 6.176 1.632 11.728 5.6 15.264 11.472l0.256 0.416c2.144 3.68 6.832 4.928 10.496 2.816 3.68-2.144 4.912-6.832 2.784-10.496-5.664-9.792-14.72-16.352-24.848-19.072-9.872-2.656-20.768-1.568-30.4 3.776-0.208 0.096-0.416 0.192-0.592 0.304l-432.32 248.032c-3.68 2.128-4.96 6.816-2.848 10.48 2.096 3.696 6.784 4.976 10.48 2.864l119.728-68.72c2.032-1.136 3.808-2.48 6.272-2.48 2.128 0 4.064 0.944 5.376 2.448 2 2.336 1.76 5.936 2.512 8.96 2.368 9.76 8.592 18.608 17.952 24.064l140.32 81.968c1.76 1.008 3.056 1.6 4.128 3.456 0.592 1.056 0.96 2.24 0.96 3.536 0 0.992-0.208 1.904-0.528 2.784-1.216 2.784-3.92 3.92-6.368 5.36l-55.44 32.224c-12.352 7.216-26.416 13.616-35.168 23.392-12.032 13.424-10.832 35.040 0.688 48.192 7.472 8.528 18.56 12.864 29.744 19.088l71.552 39.904c1.584 0.848 2.672 1.344 3.76 2.88 0.816 1.152 1.296 2.56 1.296 4.064 0 1.088-0.24 2.112-0.688 3.056-0.864 1.856-2.304 2.832-3.904 4.016-5.424 4.032-11.312 7.504-17.424 10.352-18.656 8.688-39.776 11.776-60.688 7.984-4.464-0.8-8.848-1.92-13.184-3.344-4.032-1.328-8-2.896-11.904-4.752-0.752-0.336-1.536-0.72-2.272-1.088-1.984-1.024-4.224-1.92-5.504-3.824-0.784-1.152-1.216-2.512-1.216-3.968 0-1.472 0.432-2.832 1.216-3.968 1.12-1.696 2.784-2.464 4.432-3.424l5.28-3.056c3.664-2.128 4.912-6.816 2.784-10.496-2.112-3.648-6.816-4.896-10.464-2.8l-18.592 10.736c-1.232 0.72-2.416 1.52-3.808 1.808-0.48 0.096-0.976 0.144-1.504 0.144-1.744 0-2.816-0.624-4.416-1.184-14.624-5.216-31.552-1.184-42.176 11.376-4.448 5.2-7.216 11.264-8.432 17.536-0.432 2.32-0.464 4.144-2.128 5.984-0.88 0.976-2.688 1.984-3.872 2.672l-95.392 55.024c-3.648 2.144-4.896 6.848-2.784 10.496 2.128 3.68 6.816 4.912 10.48 2.784l86.288-49.776c1.312-0.784 3.344-2.144 4.88-2.512 0.56-0.128 1.12-0.192 1.712-0.192 1.184 0 2.288 0.272 3.248 0.784 2.304 1.168 3.536 3.696 5.072 5.664 1.6 2 3.376 3.872 5.408 5.616 11.904 10.064 25.040 18.464 39.040 25.056 13.84 6.544 28.72 11.28 44.256 14.096 37.152 6.704 74.256 1.44 106.672-13.68 25.808-12.016 48.752-30.272 66.464-53.616 8.56-11.264 22.432-29.344 23.536-43.808 0.736-9.12-1.856-18.24-7.232-25.632-6.432-8.816-15.968-12.928-25.248-18.096l-52.336-29.184c-2.16-1.184-4.816-2.336-6.16-4.512-0.624-1.072-0.992-2.32-0.992-3.648 0-1.344 0.368-2.608 1.024-3.664 1.168-1.888 2.72-2.592 4.528-3.648l72.256-42.064c26.384-15.264 25.792-59.184-0.288-74.4l-129.264-75.52c-2.096-1.232-5.104-2.56-6.432-4.704-0.688-1.088-1.056-2.352-1.056-3.728 0-1.392 0.4-2.672 1.088-3.776 1.216-1.92 3.248-2.816 5.152-3.936l5.168-3.008c18.32-10.592 24.592-34.080 13.984-52.4-2.16-3.696-4.832-6.88-7.872-9.552-2-1.776-4.752-3.184-5.84-5.68zM222.209 487.496c-1.168-2.24-3.536-3.792-6.224-3.792-2.368 0-3.84 1.136-5.776 2.272l-75.984 43.728c-3.648 2.128-8.336 0.864-10.448-2.832-2.112-3.632-0.848-8.32 2.832-10.448l351.040-202.224c8.368-4.8 17.808-5.776 26.4-3.472 8.608 2.288 16.336 7.904 21.136 16.192 2.128 3.696 0.864 8.384-2.784 10.496-3.696 2.128-8.384 0.864-10.48-2.784l-0.272-0.432c-2.688-4.416-6.896-7.392-11.568-8.64-4.784-1.296-10.064-0.736-14.752 1.936v-0.016l-0.016 0.016-150.768 86.832c-1.728 1.008-3.408 1.744-4.544 3.456-0.8 1.136-1.248 2.496-1.248 3.968 0 1.008 0.208 1.968 0.608 2.848 0.992 2.272 3.296 3.568 5.088 5.232 2.768 2.544 5.2 5.552 7.184 8.992 7.056 12.176 6.656 26.656 0.224 38.096-0.544 0.944-1.472 2.384-1.792 3.328-0.208 0.672-0.336 1.408-0.336 2.176 0 1.6 0.528 3.072 1.408 4.272 1.12 1.456 3.648 2.752 5.248 3.632l62.832 35.040c18.416 10.24 32.64 21.024 33.36 44.384 0.416 13.648-6.496 27.072-19.136 34.4l-68.624 39.92c-1.52 0.88-2.72 1.408-3.776 2.928-0.784 1.152-1.248 2.528-1.248 4.032 0 1.76 0.656 3.36 1.712 4.592 1.152 1.344 2.976 2.192 4.512 3.056l46.016 25.632c8.224 4.592 16.576 10.752 21.296 19.056 5.344 9.344 6.752 20.848 2.88 31.824-13.536 38.208-40.8 67.744-74.352 84.88-33.536 17.088-73.424 21.76-112.208 10.256-8.464-2.48-16.624-5.68-24.384-9.552-7.904-3.904-15.392-8.48-22.448-13.648-3.040-2.256-5.664-4.864-7.856-7.712-1.040-1.392-1.984-3.12-3.44-4.144-1.152-0.88-2.592-1.36-4.16-1.36-0.656 0-1.264 0.080-1.84 0.224-1.28 0.336-2.432 1.152-3.568 1.792l-36.48 21.040c-3.648 2.112-8.336 0.864-10.432-2.816-2.128-3.648-0.848-8.368 2.816-10.48l44.512-25.664c1.168-0.672 2.288-1.232 3.184-2.256 0.624-0.672 1.12-1.472 1.44-2.336 0.336-0.976 0.416-1.936 0.56-2.96 0.912-5.92 3.216-11.744 7.024-16.944 10.416-14.208 28.752-19.168 44.496-13.216 1.2 0.464 3.264 1.248 4.464 1.248 0.704 0 1.36-0.096 2.016-0.272 1.088-0.336 2.4-1.136 3.36-1.712l19.728-11.376c3.664-2.096 8.32-0.816 10.448 2.832 2.096 3.68 0.864 8.368-2.832 10.464l-2.576 1.472c-1.904 1.104-3.536 1.808-4.72 3.792-0.656 1.072-1.008 2.304-1.008 3.648 0 1.984 0.8 3.792 2.128 5.072 1.76 1.728 4.224 2.128 6.56 2.64 1.664 0.368 3.376 0.672 5.072 0.912 15.824 2.368 31.6-0.464 45.296-7.456 3.712-1.904 7.264-4.096 10.624-6.576 1.344-0.976 2.976-2.144 3.904-3.552 0.72-1.12 1.136-2.432 1.136-3.856 0-1.52-0.496-2.928-1.328-4.096-0.88-1.264-1.776-1.776-3.040-2.512l-68.32-38.048c-10.688-5.984-20.432-11.312-26.896-22.512-10.624-18.32-4.384-41.776 13.968-52.4l71.040-41.328c1.28-0.736 3.216-1.952 4.064-3.12 0.816-1.152 1.28-2.56 1.28-4.064 0-1.936-0.784-3.68-2.032-4.96-0.896-0.944-1.968-1.456-3.088-2.080l-75.744-42.24c-10.704-5.952-17.44-16.224-19.232-27.424-0.288-1.808-0.256-3.664-1.136-5.296zM561.505 826.6c37.168-21.488 49.904-69.008 28.448-106.16-21.44-37.152-68.992-49.888-106.144-28.416-37.152 21.44-49.888 68.944-28.448 106.112 21.456 37.2 68.976 49.936 106.144 28.464z" />
<glyph unicode="&#xe60e;" glyph-name="uniE60E" d="M779.493 768.011c37.152-21.456 49.888-68.976 28.432-106.16-21.44-37.136-68.96-49.888-106.128-28.416-37.184 21.456-49.904 68.96-28.448 106.16 21.44 37.152 68.992 49.888 106.144 28.416zM817.717 542.523c2.8 0 5.2-1.584 6.336-3.952 0.88-1.744 0.752-3.328 0.752-5.152v-313.936c0-4.256 3.44-7.712 7.712-7.712 4.224 0 7.664 3.456 7.664 7.712v330.208c0 2.368-0.224 4.112 1.216 6.208 1.040 1.52 2.832 2.512 4.304 3.584 4.144 2.896 8.16 6.032 12.032 9.312 16.16 13.68 18.176 37.888 4.496 54.096-4.224 4.944-9.44 8.608-15.088 10.848-1.776 0.688-3.232 0.928-4.656 2.272-0.832 0.768-1.456 1.68-1.84 2.768-0.56 1.536-0.464 3.2-0.464 4.816v9.936c0 4.208-3.44 7.664-7.664 7.664-4.272 0-7.712-3.456-7.712-7.664v-9.6c0-2.208 0.192-4.272-0.896-6.304-0.384-0.736-0.912-1.408-1.536-1.968-1.376-1.232-3.040-1.648-4.656-2.352-3.392-1.456-6.624-3.44-9.568-5.936-6.784-5.712-14.24-10.496-22.224-14.272-8.080-3.808-16.496-6.544-25.024-8.096-20.944-3.776-42.064-0.672-60.704 8-10.496 4.88-20.128 11.552-28.448 19.824-12.208 12.096-18.784 26.896-29.024 40.432-17.744 23.536-40.784 41.888-66.752 53.984-32.4 15.12-69.52 20.416-106.64 13.712-15.552-2.816-30.448-7.584-44.288-14.096-14-6.592-27.136-15.040-39.040-25.12-2.464-2.080-4.624-4.464-6.432-6.976-0.64-0.912-1.216-1.984-1.936-2.784-1.312-1.44-3.2-2.32-5.264-2.32-0.688 0-1.36 0.080-1.984 0.256-1.136 0.352-2.256 1.072-3.248 1.648l-196.064 113.184c-3.664 2.112-8.352 0.848-10.448-2.848-2.112-3.632-0.848-8.32 2.816-10.432l203.968-117.76c1.072-0.64 2.368-1.312 3.28-2.16 1.904-1.872 1.92-3.408 2.32-5.68 1.12-6.496 3.936-12.8 8.496-18.208 10.784-12.688 28.064-16.656 42.816-11.12 1.376 0.528 2.288 0.992 3.84 0.992 0.912 0 1.744-0.192 2.56-0.496 0.624-0.224 1.2-0.608 1.792-0.912l19.52-11.264c3.696-2.112 8.352-0.864 10.48 2.816 2.080 3.648 0.832 8.336-2.832 10.448l-6.304 3.616c-1.056 0.624-1.936 1.072-2.8 2-1.168 1.264-1.872 2.928-1.872 4.768 0 4.496 3.168 6 6.64 7.776 0.816 0.368 1.632 0.784 2.432 1.168 8.128 3.792 16.528 6.528 25.056 8.096 20.944 3.76 42.064 0.704 60.688-7.984 6.352-2.976 12.384-6.56 17.968-10.768 1.6-1.184 2.816-2.032 3.6-3.968 0.32-0.848 0.496-1.744 0.496-2.656 0-1.904-0.752-3.664-1.968-4.928-0.976-0.992-2.256-1.584-3.472-2.256l-85.408-47.648c-12.96-7.2-26.976-13.856-34.768-27.264-10.624-18.336-4.368-41.792 13.968-52.416l79.552-46.288c1.696-0.976 3.056-1.6 4.176-3.28 0.704-1.104 1.136-2.432 1.136-3.856 0-1.088-0.24-2.080-0.656-3.008-1.12-2.384-3.008-3.232-5.152-4.464l-122.368-71.488c-11.072-6.448-17.712-17.6-18.864-29.472-0.256-2.576 0.128-4.784-1.376-7.040-1.28-1.904-3.44-3.168-5.904-3.168-2.448 0-4.192 1.328-6.224 2.48l-214.048 123.84c-3.68 2.144-8.352 0.896-10.48-2.784-2.128-3.664-0.88-8.352 2.8-10.496l606.448-350.928c0.16-0.080 0.288-0.128 0.464-0.224 9.696-5.456 20.64-6.512 30.576-3.856 10.096 2.704 19.2 9.296 24.848 19.056 2.112 3.664 0.864 8.368-2.816 10.464-3.648 2.128-8.336 0.88-10.464-2.784-3.536-6.080-9.216-10.192-15.536-11.904-6.208-1.632-13.024-0.992-19.024 2.336-0.128 0.080-0.256 0.144-0.368 0.208l-242.912 140.576c-1.824 1.040-3.744 1.904-4.944 3.696-0.752 1.12-1.184 2.464-1.184 3.904 0 3.248 1.648 4.8 4.16 6.448 1.024 0.688 2.096 1.328 2.832 1.824 4.592 3.12 8.576 7.312 11.536 12.432 10.624 18.352 4.368 41.808-13.968 52.432l-6.080 3.536c-1.424 0.816-2.736 1.424-3.792 2.736-0.976 1.216-1.552 2.752-1.552 4.432 0 1.328 0.384 2.576 0.992 3.6 1.216 2.048 3.28 2.976 5.28 4.128l104.432 60.976c13.552 7.92 23.232 12.656 29.056 28.88 3.712 10.368 3.68 21.984-0.88 31.888-5.968 13.008-17.088 17.712-28.656 24.432l-63.68 37.024c-1.504 0.896-2.656 1.376-3.68 2.88-0.832 1.136-1.312 2.544-1.312 4.080 0 1.696 0.624 3.296 1.648 4.528 1.184 1.424 3.232 2.32 4.816 3.216l49.456 27.584c1.68 0.88 2.88 1.664 4.944 1.664 2.864 0 4.368-1.456 6.368-3.264 13.248-12 28.16-21.856 44.208-29.344 32.4-15.088 69.52-20.368 106.656-13.664 13.312 2.384 26.16 6.208 38.24 11.376 1.728 0.72 3.184 1.52 5.072 1.52z" />
<glyph unicode="&#xe60f;" glyph-name="uniE60F" d="M555.474 821.77c42.032 8.688 83.152-18.304 91.872-60.32 8.688-42.032-18.288-83.152-60.304-91.856-42.032-8.704-83.184 18.288-91.872 60.304-8.72 42.032 18.304 83.168 60.304 91.872zM714.098 587.162c3.216 0 5.936-2.144 6.784-5.088 0.432-1.424 0.272-3.344 0.272-4.784l-0.096-74.336c0-4.24 3.424-7.664 7.632-7.664 4.272 0 7.68 3.424 7.68 7.664l0.128 90.48c0.032 1.408-0.048 3.28 0.384 4.624 0.272 0.912 0.768 1.744 1.392 2.448 0.976 1.2 2.544 1.984 3.824 2.8 3.248 2.064 6.448 4.176 9.664 6.368 17.392 12.096 21.712 36.064 9.584 53.488-4.4 6.336-10.368 10.944-17.024 13.648-1.536 0.608-3.536 1.088-4.848 2.080-0.816 0.608-1.472 1.376-1.968 2.256-1.104 2.096-0.816 4.512-0.816 6.8l0.032 11.984c0 4.24-3.44 7.664-7.664 7.664-4.24 0-7.68-3.424-7.68-7.664v-13.696c-0.032-1.904 0.128-3.472-0.72-5.264-0.352-0.784-0.864-1.488-1.504-2.064-1.376-1.36-2.96-1.696-4.672-2.448-2.288-0.976-4.512-2.208-6.64-3.68-39.216-27.248-85.808-37.488-130.016-31.936-43.696 5.488-84.912 26.48-113.888 61.792-10.144 12.368-18.4 26.176-24.56 40.992-6.16 14.784-10.128 30.304-11.696 46.112-0.336 3.248-1.056 6.352-2.096 9.264-0.528 1.52-1.168 2.656-1.168 4.4 0 0.88 0.144 1.728 0.464 2.512 0.272 0.8 0.8 1.6 1.216 2.32l10.752 18.544c2.112 3.664 0.864 8.352-2.816 10.464-3.632 2.144-8.32 0.88-10.448-2.784l-6.048-10.352c-1.632-2.864-3.408-4.976-6.944-4.976-2.256 0-3.872 1.2-5.872 2.064-5.76 2.496-12.256 3.616-18.96 2.944-21.072-2.048-36.48-20.832-34.384-41.888 1.632-16.384 4.912-32.384 9.728-47.792 0.4-1.28 0.96-2.8 0.96-4.144 0-2.192-0.928-3.456-1.904-5.248l-179.696-309.904c-2.096-3.664-0.848-8.352 2.816-10.464 3.68-2.144 8.368-0.896 10.48 2.784l167.744 289.344c0.944 1.664 1.808 3.52 3.44 4.688 1.152 0.848 2.592 1.36 4.16 1.36 4.368 0 5.888-3.008 7.616-6.368 7.712-14.944 17.088-29.216 28.032-42.544 5.376-6.528 11.008-12.72 16.928-18.56 0.976-1.040 1.968-1.84 2.656-3.136 0.448-0.976 0.752-2.064 0.752-3.216 0-1.248-0.336-2.384-0.864-3.392-0.688-1.232-1.536-1.936-2.544-2.864-10.624-9.648-20.496-20.176-29.408-31.504-18-22.784-32.080-48.304-41.488-75.632-6.336-18.384-10.496-37.568-12.528-57.232-1.936-18.672-3.808-57.024 4.88-72.352 3.376-5.952 8.56-10.896 16.496-14.272 25.392-10.752 44.016 5.808 63.424 18.96l60.048 40.672c2.432 1.616 4.96 3.92 8 3.92 1.376 0 2.688-0.4 3.744-1.072 2.352-1.488 2.912-3.552 3.872-5.952l50.752-126.96c4.096-10.288 9.568-26.32 16.416-34.432 2.8-3.28 6.176-6.16 10.112-8.448 4.784-2.784 9.936-4.4 15.12-4.96 2.848-0.304 5.76 0.192 8.192-1.648 1.728-1.28 2.848-3.344 2.848-5.648 0-2.288-1.040-3.68-2.096-5.52l-99.408-171.488c-2.144-3.648-0.864-8.352 2.784-10.48 3.664-2.128 8.352-0.864 10.496 2.8l325.136 560.864c0.080 0.144 0.16 0.32 0.24 0.464 5.44 9.68 6.496 20.656 3.84 30.592-2.688 10.112-9.296 19.184-19.056 24.848-3.648 2.128-8.336 0.848-10.464-2.8-2.128-3.68-0.88-8.368 2.784-10.48 6.096-3.536 10.208-9.216 11.904-15.536 1.68-6.208 1.024-13.024-2.32-19.056-0.064-0.112-0.176-0.224-0.208-0.336l-150.64-259.808c-1.12-1.968-2.496-4.656-4.624-5.792-0.944-0.544-2.096-0.832-3.344-0.832-4.992 0-6.192 4.080-8.688 7.408-2.992 4.016-6.848 7.52-11.472 10.192-11.232 6.512-24.4 6.704-35.328 1.664-3.76-1.76-7.008-4-10.848-0.928-1.936 1.536-2.528 3.792-3.408 6l-46.032 115.088c-3.52 8.816-5.744 16.272-12.928 23.12-10.688 10.288-26.816 13.6-41.408 6.752-9.36-4.4-18.080-11.872-27.6-18.272l-27.504-18.64c-2.256-1.568-4.72-3.712-7.6-3.712-3.92 0-7.12 3.168-7.12 7.072 0 2.144 1.44 4.768 2.336 6.72 6.096 13.632 13.728 26.304 22.784 37.68 10.944 13.904 24.16 26.272 39.312 36.64 0.944 0.656 2.384 1.728 3.456 2.176 0.864 0.368 1.808 0.544 2.752 0.544 1.616 0 2.544-0.448 3.904-1.024 21.344-8.848 43.84-14.752 66.72-17.632 46.896-5.872 95.792 0.928 140.704 21.136 1.664 0.736 2.976 1.504 4.88 1.504z" />
<glyph unicode="&#xe610;" glyph-name="uniE610" d="M278.502 384.294c-3.664 2.128-4.912 6.816-2.784 10.48 2.112 3.68 6.816 4.928 10.464 2.8l324.896-188.8c6.096-3.504 13.072-4.224 19.376-2.544 6.336 1.696 12 5.792 15.536 11.92 2.144 3.68 6.816 4.928 10.464 2.8 3.696-2.144 4.96-6.832 2.816-10.496-5.68-9.776-14.736-16.368-24.848-19.056-10.112-2.72-21.248-1.568-31.008 4.080l-324.912 188.816zM292.966 457.366c-18.336 10.56-24.656 33.936-14.128 52.272 10.544 18.32 33.952 24.656 52.288 14.128l454.528-262.432c18.336-10.528 24.656-33.936 14.128-52.256-10.528-18.368-33.936-24.656-52.288-14.128l-454.528 262.416zM296.838 706.15c42.896 0 77.712-34.816 77.712-77.696 0-42.912-34.816-77.712-77.712-77.712-42.928 0-77.712 34.8-77.712 77.712 0 42.88 34.784 77.696 77.712 77.696z" />
<glyph unicode="&#xe611;" glyph-name="uniE611" d="M493.072 691.876c37.136-21.456 84.672-8.736 106.128 28.448 21.472 37.184 8.736 84.688-28.448 106.128-37.168 21.488-84.672 8.736-106.128-28.416s-8.72-84.688 28.448-106.16zM612.416 646.1l0.016 0.032h0.032c9.76 5.632 16.352 14.72 19.040 24.848 2.72 10.096 1.568 21.216-4.096 30.992-2.080 3.696-6.768 4.944-10.432 2.848-3.68-2.128-4.928-6.816-2.848-10.464 3.536-6.096 4.256-13.072 2.56-19.408-1.712-6.32-5.808-12-11.936-15.536l-318.912-181.68c-1.136-0.656-2.528-1.504-3.776-1.792-0.544-0.112-1.104-0.208-1.648-0.208-2.896 0-5.392 1.712-6.48 4.176-0.88 1.968-0.576 3.504-0.576 5.472 0.032 6.976-1.84 14.032-5.776 20.384-3.632 5.808-8.576 10.336-14.224 13.408-2.832 1.52-4.8 3.152-4.8 6.768 0 2.192 0.784 3.344 1.936 5.040l1.872 2.752c20.464 29.616 44.848 56.768 72.56 80.688 14.336 12.368 29.264 23.648 44.672 33.776 15.28 10.032 31.568 19.248 48.736 27.536 19.072 9.216 27.088 32.144 17.888 51.248-6.048 12.528-18.064 20.272-30.96 21.504-10.288 0.992-27.184-5.104-37.264-7.92l-213.696-59.424c-20.4-5.632-32.368-26.752-26.736-47.168 5.632-20.4 26.752-32.368 47.168-26.752l24.32 6.784c1.312 0.352 2.752 0.848 4.096 0.848 3.904 0 7.056-3.184 7.056-7.088 0-2.848-1.504-4.352-3.12-6.416-6.96-8.896-13.632-18.064-19.984-27.44-24.784-36.4-44.736-75.936-59.28-117.68-5.76-16.56 0.496-34.4 14.176-44 1.776-1.248 4.256-2.384 5.568-4.128 0.864-1.184 1.408-2.656 1.408-4.256 0-1.424-0.432-2.768-1.152-3.872-1.104-1.648-2.32-2.24-3.936-3.12l-21.488-12.256c-3.68-2.096-4.96-6.752-2.864-10.432s6.768-4.976 10.448-2.912l482.432 274.848zM693.616 489.604c42.928 0 77.728 34.784 77.728 77.68 0 42.944-34.8 77.728-77.728 77.728-42.912 0-77.696-34.784-77.696-77.728 0-42.896 34.784-77.68 77.696-77.68zM655.024 271.204l-43.376-75.264c-7.664-13.344-5.488-29.456 1.76-42.592 1.232-2.176 2.8-4 2.8-6.656 0-5.216-4.112-7.056-8.608-7.056h-117.792c-2.208 0-4.032-0.224-6.048 0.992-2.080 1.216-3.488 3.472-3.488 6.064 0 1.072 0.224 2.064 0.64 2.976 1.056 2.24 4.176 4.368 6.032 5.936 47.712 40.528 88.208 88.912 119.632 143.152 0.752 1.312 1.344 2.528 2.512 3.568 1.232 1.088 2.864 1.744 4.64 1.744 0.56 0 1.056-0.064 1.584-0.192 1.408-0.304 2.608-1.088 3.856-1.808l32.992-18.992c1.536-0.88 2.56-1.376 3.568-2.912 0.72-1.12 1.136-2.432 1.136-3.872 0-2.16-0.848-3.376-1.84-5.088zM897.792 172.884c-4.24 0-7.696-3.44-7.696-7.696 0-7.056-2.864-13.424-7.488-18.048-4.608-4.624-10.992-7.472-18.064-7.472v-0.032h-114.080c-1.824 0-3.472-0.16-5.216 0.592-2.512 1.088-4.208 3.6-4.208 6.464 0 2.32 1.344 4.32 2.208 6.384 1.84 4.496 2.88 9.456 2.88 14.656 0 17.52-11.712 32.304-27.76 36.928-2 0.592-3.696 0.72-5.376 2.16-1.52 1.312-2.48 3.216-2.48 5.376 0 0.688 0.096 1.344 0.272 1.968 0.416 1.44 1.488 3.008 2.208 4.288l31.36 54.336c6 10.432 6.528 22.56 2.464 32.976-5.776 14.864-15.664 20.176-28.816 27.744l-66.8 38.464c-1.472 0.848-3.168 1.632-4.24 3.008-1.008 1.216-1.616 2.784-1.616 4.464 0 1.84 0.896 3.696 1.52 5.376 4.944 13.536 9.408 27.28 13.296 41.248 7.392 26.432 5.184 41.376-18.864 57.152-36.432 23.888-78.944 32.72-119.664 27.536-43.376-5.504-84.704-26.848-114.528-62.848-9.792-11.808-18.048-25.056-24.624-39.376-1.488-3.248-2.88-6.528-4.176-9.872-0.384-0.992-0.72-2.032-1.28-2.928-1.264-2-3.472-3.344-6-3.344-0.608 0-1.168 0.096-1.712 0.208-1.312 0.32-2.4 1.072-3.568 1.728l-57.28 33.056c-3.648 2.128-8.336 0.848-10.48-2.784-2.112-3.68-0.864-8.368 2.8-10.496l62.976-36.336c1.792-1.040 3.616-1.888 4.816-3.632 1.856-2.784 1.104-4.848 0.56-7.776-0.128-0.72-0.272-1.472-0.416-2.192-3.456-20.912 10.656-40.688 31.568-44.192 11.872-1.968 23.44 1.76 31.776 9.2 1.168 1.024 2.464 2.368 3.808 3.088 0.992 0.528 2.080 0.816 3.264 0.816 0.528 0 0.992-0.064 1.504-0.192 1.36-0.288 2.72-1.12 3.936-1.808l11.424-6.592c3.712-2.128 8.4-0.88 10.512 2.768 2.128 3.664 0.864 8.384-2.784 10.512l-13.936 8.032c-1.296 0.736-2.32 1.248-3.312 2.432-1.040 1.216-1.664 2.816-1.664 4.528 0 1.248 0.288 2.384 0.544 3.6 1.568 7.088 3.84 13.904 6.8 20.336 3.568 7.76 8.288 15.216 14.128 22.256 17.024 20.528 40.432 32.688 64.96 35.808 12.976 1.664 26.288 0.784 39.136-2.688 2.592-0.688 5.392-1.28 7.152-3.504 2.512-3.216 1.408-5.84 0.24-9.216-13.744-39.616-32.672-77.152-56.176-111.616-30.352-44.48-68.16-83.696-112.016-115.632-16.528-12.032-33.968-23.056-52.24-32.992-18.016-9.824-36.752-18.48-56.096-25.92-19.024-7.36-28.848-28.272-22.672-47.456 0.48-1.504 1.056-2.56 1.056-4.192 0-2.656-1.472-4.944-3.648-6.16-1.76-0.992-3.040-0.88-4.976-0.88h-134.016c-4.256 0-7.68-3.424-7.68-7.68 0-4.224 3.424-7.616 7.68-7.616h175.536c1.696-0.128 3.408-0.128 5.136 0l258.144-0.032c11.28 0 21.536 4.56 28.928 11.968 7.392 7.392 11.984 17.648 11.984 28.96 0 4.256-3.424 7.696-7.664 7.696-4.272 0-7.712-3.44-7.712-7.696 0-7.056-2.88-13.44-7.456-18.064-4.624-4.656-11.040-7.504-18.080-7.504v-0.032h-183.712c-1.648 0-3.168-0.112-4.768 0.512-2.64 1.024-4.464 3.584-4.464 6.56 0 1.344 0.368 2.592 1.008 3.68 1.392 2.288 4.16 3.376 6.464 4.608 1.216 0.64 2.448 1.312 3.664 1.968 16.72 9.12 33.104 19.184 49.024 30.144 1.104 0.784 2.176 1.632 3.536 2.032 1.328 0.384 3.264 0.32 4.624 0.32l413.36-0.032c11.312 0 21.52 4.56 28.928 11.968 7.424 7.408 12 17.648 12 28.928 0 4.256-3.424 7.696-7.68 7.696z" />
<glyph unicode="&#xe612;" glyph-name="uniE612" d="M216.938 658.934c-1.056 9.568 1.44 18.672 6.464 26.048 0.656 1.008 1.472 1.92 1.952 3.040 0.336 0.848 0.528 1.76 0.528 2.688 0 0.56-0.096 1.136-0.224 1.648-0.352 1.488-1.376 3.008-2.096 4.288l-10.944 19.024c-10.592 18.528-4.176 42.080 14.32 52.672 18.464 10.576 42.032 4.208 52.624-14.304l34.112-59.472c9.344-16.32 5.472-36.608-8.32-48.416-1.888-1.584-3.952-2.624-4.896-5.024-0.368-0.848-0.528-1.76-0.528-2.688 0-1.568 0.624-3.168 1.12-4.624 3.2-9.632 7.312-18.912 12.192-27.728 10.432-18.8 24.624-35.6 41.904-49.328 52.72-41.84 125.856-47.216 183.696-15.072 2.992 1.664 5.168 3.296 5.168 7.072 0 0.56-0.048 1.136-0.176 1.68-0.56 2.288-1.936 3.392-3.472 4.912l-126.080 126.112c-15.072 15.072-15.072 39.504 0 54.576 15.072 15.056 39.504 15.056 54.56 0l138.864-138.848c20.48-20.56 29.68-21.472 57.792-23.28 8.656-0.528 17.312-0.432 25.904 0.32 23.664 2.064 46.848 8.976 68 20.624 18.656 10.272 42.064 3.408 52.336-15.216 10.224-18.656 3.408-42.064-15.248-52.32-30.768-16.976-64.336-27.008-98.448-29.968-24.816-2.144-50-0.56-74.64 4.816-1.216 0.272-2.624 0.72-3.872 0.72-1.008 0-2.064-0.256-2.944-0.656-1.472-0.688-3.44-2.576-4.72-3.6-11.936-9.744-24.56-18.224-37.776-25.376-2.048-1.136-4.256-1.952-5.6-3.984-0.72-1.12-1.136-2.464-1.136-3.904 0-0.832 0.112-1.632 0.416-2.4 0.656-1.808 2.448-3.536 3.696-5.040 9.472-11.184 17.968-23.184 25.376-35.808 23.2-39.504 35.776-85.264 35.152-132.768-0.192-13.072-1.328-25.904-3.376-38.464-0.528-3.056-1.472-6.032 0.32-8.912 0.736-1.152 1.76-2.096 2.992-2.656 1.904-0.912 3.968-0.688 6-0.688h5.152c21.328 0 38.608-17.28 38.608-38.608 0-21.312-17.28-38.56-38.608-38.56h-70.832c-21.312 0-38.576 17.248-38.576 38.56 0 4.064 0.608 7.968 1.76 11.616 2.72 8.64 8.064 16.96 11.232 26.992 1.456 4.544 2.72 9.12 3.792 13.776 2.928 12.592 4.48 25.312 4.656 37.856 0.416 33.28-8.368 65.328-24.576 92.976-12.448 21.12-29.232 39.744-49.568 54.4-7.184 5.2-6.72 6.544-15.776 6.288-55.536-1.6-111.696 15.744-157.952 52.56-25.184 19.92-45.872 44.544-61.248 72.208-15.392 27.744-25.376 58.352-29.056 90.24zM652.554 748.518c41.6 11.12 84.352-13.536 95.504-55.184 11.168-41.6-13.52-84.352-55.12-95.456-41.632-11.184-84.384 13.52-95.536 55.104-11.152 41.616 13.536 84.368 55.152 95.536zM541.498 122.55c-4.224 0-7.712 3.472-7.712 7.728s3.488 7.712 7.712 7.712h132.512c4.272 0 7.712-3.456 7.712-7.712s-3.44-7.728-7.712-7.728h-132.512z" />
<glyph unicode="&#xe613;" glyph-name="uniE613" d="M649.633 718.048c43.056 0 77.984-34.912 77.984-78 0-43.040-34.928-78-77.984-78s-77.984 34.96-77.984 78c0 43.088 34.928 78 77.984 78zM458.897 314.352c-12-9.936-24.336-19.424-37.008-28.464-75.328-53.632-162.192-90.56-254.656-107.216-20.896-3.76-40.88 10.144-44.624 31.024-3.744 20.912 10.16 40.88 31.056 44.608 81.040 14.64 157.296 47.088 223.6 94.304 64 45.568 118.688 105.024 159.216 175.52 5.024 8.768 14 21.84 22.080 27.184 11.792 7.76 27.44 8.736 40.528 1.168l189.216-109.808c18.384-10.656 24.672-34.224 14.016-52.64-10.656-18.384-34.208-24.656-52.608-14l-149.52 86.784c-0.96 0.56-2.272 1.376-3.328 1.728-0.704 0.208-1.424 0.336-2.192 0.336-1.968 0-3.776-0.816-5.072-2.128-0.672-0.688-1.136-1.488-1.664-2.336-11.68-18.256-24.192-35.776-37.52-52.56-2.144-2.688-4.16-5.856-2.672-9.376 0.688-1.584 1.936-2.896 3.504-3.648 1.744-0.8 3.408-0.656 5.264-0.656l93.28-0.096c21.216 0 38.416-17.184 38.416-38.432 0-7.328-3.152-19.168-6.8-25.472l-35.904-62.016c-0.96-1.68-2.512-4.368-2.512-6.304 0-1.968 0.816-3.76 2.112-5.040 1.728-1.744 3.472-1.872 5.792-2.272 18.080-3.184 31.824-19.008 31.824-38 0-21.312-17.28-38.592-38.592-38.592h-66.672c-1.584 0-3.168 0.096-4.704 0.272-7.040-0.272-14.256 1.376-20.8 5.168-18.4 10.656-24.672 34.208-14.016 52.624l39.664 68.56c1.088 1.872 2.16 3.312 2.16 5.632 0 2.8-1.648 5.216-4 6.368-1.824 0.912-3.456 0.736-5.392 0.736l-102.656 0.080c-4.912 0-5.136 0-8.816-3.040zM874.481 256.224c0.432-0.896 1.040-1.712 1.776-2.368 1.024-0.912 1.76-1.152 2.96-1.696 13.424-6.032 22.784-19.52 22.784-35.216 0-21.312-17.28-38.592-38.592-38.592h-76.48c-21.312 0-38.576 17.28-38.576 38.592s17.264 38.592 38.576 38.592h57.296c2 0 3.248-0.144 5.088 0.912 1.104 0.624 2.064 1.568 2.8 2.624 2.736 3.888 0.96 8.32-2.48 11.056-3.184 2.608-6.992 4.448-11.216 5.248-2.784 0.544-5.392 0.48-8.192 0.512h-49.456c-4.24 0-7.664 3.456-7.664 7.696s3.424 7.68 7.664 7.68l52.72 0.048c11.36 0 21.632-4.592 29.072-12.048 4.976-5.008 8.704-11.248 10.608-18.304 0.384-1.424 0.688-3.392 1.312-4.736z" />
<glyph unicode="&#xe614;" glyph-name="uniE614" d="M521.576 367.72l-53.504-92.752c-4.848-8.528-5.984-18.496-4.288-28.144 0.896-5.104 2.688-9.696 5.040-13.888 1.312-2.368 3.248-4.496 3.248-7.344 0-2.56-1.344-4.864-3.408-6.080-2.112-1.312-4.256-1.040-6.624-1.040h-116.64c-2.288 0-4.336-0.224-6.4 1.072-2.016 1.28-3.328 3.52-3.328 6.048 0 0.944 0.176 1.824 0.496 2.656 0.784 1.888 2.112 2.88 3.568 4.16 41.632 36.528 77.2 78.784 105.728 125.216 8 13.024 15.488 26.4 22.416 40.064 0.688 1.472 1.344 2.992 2.544 4.128 1.28 1.152 2.96 1.84 4.832 1.84 0.448 0 0.912-0.032 1.376-0.128 1.312-0.256 2.16-0.8 3.28-1.472l37.76-21.712c1.584-0.912 4.064-2.528 4.912-4.128 0.528-0.976 0.832-2.128 0.832-3.344 0-2.144-0.848-3.376-1.84-5.152zM895.464 251.848c-4.224 0-7.712-3.44-7.712-7.744 0-7.040-2.88-13.44-7.504-18.096-4.624-4.64-11.008-7.504-18.128-7.504v-0.032h-254.496c-2.064 0-4.064-0.192-6 0.88-2.224 1.184-3.696 3.504-3.696 6.24 0 1.888 0.592 2.784 1.328 4.384 2.432 5.024 3.808 10.72 3.808 16.688 0 17.968-12.288 33.056-28.928 37.36-3.808 0.976-6.848 2.768-6.848 7.264 0 0.528 0.064 1.056 0.16 1.536 0.288 1.28 0.912 2.24 1.536 3.344l42.080 72.928c0.592 1.056 1.152 2.176 1.648 3.248 9.2 18.128 2.656 40.432-15.12 50.656l-91.088 52.448c-2.56 1.488-4.208 3.376-4.208 6.528 0 1.28 0.336 2.336 0.72 3.536 6.528 21.52 11.808 43.552 15.68 65.936 3.248 18.672 3.28 35.52-14.064 47.984-38.048 27.472-83.424 37.872-126.88 32.32-43.552-5.536-85.024-26.976-114.928-63.056-9.84-11.872-18.128-25.184-24.72-39.504-1.152-2.496-2.224-5.024-3.248-7.536-1.152-2.832-1.808-6-4.56-7.68-1.072-0.656-2.352-1.008-3.696-1.008-2.24 0-3.584 0.976-5.408 2.032l-88.848 51.248c-3.696 2.16-8.384 0.88-10.48-2.784-2.176-3.68-0.928-8.4 2.752-10.528l95.296-54.992c2.48-1.44 4.592-2.688 5.2-5.376 0.464-2.032-0.032-3.776-0.416-5.776-0.112-0.72-0.272-1.424-0.368-2.16-3.504-20.976 10.656-40.816 31.648-44.32 12.352-2.032 24.288 2.032 32.752 9.968 1.008 0.976 1.808 1.856 3.088 2.512 2.848 1.408 5.344 0.56 8-0.976l12.096-7.024c3.696-2.096 8.384-0.848 10.512 2.832 2.16 3.696 0.864 8.384-2.784 10.512l-14.064 8.112c-1.312 0.784-2.336 1.264-3.344 2.496-2.064 2.544-1.696 4.768-1.072 7.728 1.536 7.216 3.856 14.192 6.88 20.752 3.568 7.776 8.32 15.28 14.16 22.32 17.088 20.592 40.608 32.832 65.2 35.936 14.624 1.872 29.664 0.544 43.968-4.080 2.88-0.928 5.472-2.032 6.624-4.464 1.184-2.4 0.528-4.496-0.064-6.928-11.552-50.352-31.344-98.256-58.176-141.984-32.224-52.464-74.4-98.48-124.64-135.056-16.576-12.112-34.096-23.152-52.464-33.12-18.064-9.84-36.864-18.528-56.272-26-19.824-7.68-29.664-29.952-22-49.792 3.408-8.784 9.68-15.648 17.408-19.84 10.304-5.632 18.208-4.656 29.184-4.656l414.288-0.032c11.36 0 21.648 4.592 29.056 12.032 7.44 7.44 12.032 17.712 12.032 29.056 0 4.224-3.44 7.696-7.728 7.696-4.24 0-7.712-3.472-7.712-7.696 0-7.088-2.848-13.52-7.504-18.144-4.624-4.608-11.040-7.504-18.144-7.504v-0.032h-347.488c-2.608 0-4.576-0.256-6.848 1.504-1.664 1.28-2.72 3.312-2.72 5.584 0 1.536 0.496 2.944 1.312 4.096 1.312 1.872 3.472 2.688 5.376 3.744 1.536 0.816 3.072 1.6 4.56 2.416 20.592 11.216 40.592 23.856 59.872 37.824 0.352 0.272 0.656 0.528 0.976 0.72 0.928 0.688 1.904 1.424 2.944 1.84 1.36 0.528 2.432 0.432 3.872 0.432l555.008-0.032c11.344 0 21.6 4.592 29.056 12.032 7.424 7.44 12.032 17.664 12.032 29.008 0 4.304-3.456 7.744-7.744 7.744zM550.36 610.504c43.072 0 77.984 34.912 77.984 78 0 43.040-34.912 78-77.984 78s-77.968-34.96-77.968-78c0-43.088 34.896-78 77.968-78z" />
<glyph unicode="&#xe615;" glyph-name="uniE615" horiz-adv-x="639" d="M567.296 632.32l-320.512-380.928-182.272 152.576-64.512-77.824 259.072-218.112 385.024 459.776z" />
<glyph unicode="&#xe616;" glyph-name="uniE6152" d="M586.9 186.429c-3.648 2.176-4.88 6.896-2.752 10.56 2.128 3.68 6.88 4.88 10.56 2.752l210.688-123.616c6.064-3.712 13.040-4.624 19.44-3.088 6.384 1.536 12.16 5.536 15.872 11.568 0.32 0.528 0.704 1.008 1.152 1.472h-0.016c2.992 3.008 7.888 3.008 10.896 0 2.72-2.72 3.008-6.96 0.816-10-5.936-9.376-15.104-15.584-25.136-18-10.048-2.4-20.992-1.072-30.544 4.624-0.352 0.112-0.624 0.32-0.976 0.56l-210 123.168zM771.844 223.805c0-3.92-3.216-7.072-7.136-7.072-2.528 0-4.432 1.36-6.496 2.592l-533.792 309.792c-18.416 10.688-42 4.384-52.64-14.016-10.688-18.464-4.416-42.048 14.016-52.704l610.048-354.064c18.4-10.64 41.984-4.32 52.656 14.064 2.496 4.368 4.080 8.928 4.784 13.584 8.368 42.336 6.704 86.784-16.768 132.624-22.432 43.68-64.512 87.28-136.928 129.344l-475.072 275.808c-18.4 10.672-41.984 4.368-52.656-14.032s-4.4-42.016 14.032-52.688l475.072-275.824c58.432-33.888 91.040-66.48 107.008-97.648 0.576-1.12 1.12-2.176 1.616-3.328 0.928-1.936 2.256-4.288 2.256-6.432zM337.812 807.437c25.648-34.656 18.336-83.568-16.32-109.216-34.656-25.632-83.536-18.336-109.184 16.32-25.648 34.64-18.384 83.552 16.288 109.184 34.656 25.664 83.552 18.368 109.216-16.288zM492.372 718.189c25.648-34.656 18.368-83.52-16.272-109.216-34.672-25.648-83.552-18.336-109.232 16.288-25.648 34.688-18.336 83.552 16.304 109.232 34.688 25.632 83.552 18.352 109.2-16.304zM646.932 628.925c25.68-34.656 18.368-83.536-16.272-109.152-34.656-25.68-83.552-18.384-109.232 16.272-25.6 34.656-18.32 83.536 16.352 109.216 34.656 25.648 83.52 18.32 109.152-16.336zM801.524 539.709c25.68-34.656 18.368-83.552-16.304-109.216-34.624-25.648-83.568-18.336-109.184 16.288-25.664 34.688-18.352 83.568 16.304 109.232 34.656 25.632 83.552 18.352 109.184-16.304zM169.94 430.285c-3.696 2.144-4.912 6.848-2.752 10.528s6.864 4.896 10.544 2.72l210.544-123.52c3.664-2.128 4.912-6.864 2.752-10.544-2.128-3.648-6.88-4.88-10.512-2.736l-210.576 123.552z" />
<glyph unicode="&#xe617;" glyph-name="uniE616" d="M549.876 726.739c43.056 0 78-34.912 78-77.984 0-43.056-34.944-77.968-78-77.968-43.072 0-77.984 34.912-77.984 77.968 0 43.072 34.912 77.984 77.984 77.984zM240.26 116.531c0-4.016 2.128-7.568 5.312-9.6 3.424-2.16 6.704-1.76 10.544-1.76l328.688 0.016c7.072 0 13.472 2.896 18.112 7.52 4.64 4.656 7.504 11.056 7.504 18.128 0 4.272 3.472 7.696 7.76 7.696 4.24 0 7.696-3.424 7.696-7.696 0-11.344-4.592-21.616-12.048-29.056-7.424-7.424-17.712-12.016-29.024-12.016v0.016h-422.432c-1.712-0.112-3.472-0.112-5.2 0-0.336 0-0.608 0.048-0.928 0.096-14.096 1.296-26.912 10.368-32.352 24.448-7.664 19.824 2.192 42.064 22 49.744 19.424 7.504 38.224 16.192 56.288 26.032 18.32 9.968 35.84 21.008 52.448 33.088 50.24 36.608 92.416 82.624 124.656 135.056 32.144 52.384 54.144 110.752 64.080 172.128 3.312 21.008 23.040 35.312 44 31.984 9.472-1.504 17.552-6.32 23.296-13.072 1.168-0.832 2.304-1.744 3.392-2.752 16.816-15.152 38.032-22.496 59.088-22.112 20.912 0.4 41.776 8.496 57.984 24.24 4.64 4.512 8.72 9.488 12.192 14.832 0.736 1.504 1.136 3.168 1.136 4.96 0 3.424-1.28 5.264-2.896 8.064l-10.208 17.744c-2.144 3.648-0.88 8.368 2.8 10.48 3.568 2.048 8.112 0.928 10.304-2.528 2.080-2.672 5.344-4.384 9.008-4.384 5.040 0 6.832 2.256 9.936 5.392 9.504 9.712 23.888 14.064 37.92 10.128 20.448-5.728 32.4-26.992 26.688-47.504-3.92-13.664-9.616-26.816-16.944-39.104-1.856-3.088-3.808-6.176-5.872-9.136-2.288-3.328-4.384-5.376-4.384-9.808 0-3.76 2.032-6.544 3.744-9.664l133.2-230.752c2.128-3.696 0.88-8.368-2.832-10.496-3.664-2.128-8.368-0.848-10.48 2.832l-127.776 221.344c-1.296 2.224-2.48 4.512-4.544 6.128-1.936 1.552-4.416 2.48-7.072 2.48-1.552 0-3.008-0.32-4.368-0.864-2.112-0.896-3.632-2.4-5.328-3.824-29.2-24.256-64.976-36.768-101.008-37.44-16.736-0.32-33.504 1.936-49.664 6.768-2.672 0.8-7.616 2.64-10.304 2.64-7.024 0-11.712-6.352-11.712-12.72 0-4.288 2.32-7.984 5.808-9.936l3.68-2.112 84.944-48.928c17.808-10.224 24.336-32.544 15.136-50.656-0.496-1.104-1.056-2.208-1.664-3.28l-37.072-64.288c-1.968-3.392-4.496-6.8-4.496-10.864 0-3.712 1.776-7.024 4.528-9.136 1.728-1.232 3.104-1.616 4.928-2.368 14.144-5.712 24.112-19.552 24.112-35.744 0-3.008-0.352-5.936-0.992-8.752-0.592-2.528-1.904-5.408-1.904-8.032 0-4.992 3.232-9.248 7.728-10.784 2.416-0.816 5.312-0.656 7.808-0.656l246.416 0.032c7.12 0 13.52 2.88 18.144 7.536 4.64 4.624 7.52 11.024 7.52 18.080 0 4.288 3.456 7.728 7.712 7.728 4.288 0 7.712-3.44 7.712-7.728 0-11.312-4.592-21.584-12.032-29.024-7.424-7.408-17.696-12.032-29.056-12.032v0.032h-549.744c-7.376 0-9.216-0.256-15.76-4.96-14.992-10.704-30.4-20.624-46.144-29.696-5.104-2.928-9.712-5.104-9.712-12.128zM342.18 190.099c0-4.56 2.656-8.496 6.528-10.304 2.784-1.312 5.184-1.104 8.128-1.104h97.376c3.216 0 6.144-0.32 9.136 1.152 3.792 1.84 6.4 5.728 6.4 10.256 0 4.384-3.184 8.224-4.736 12.272-3.968 10.416-3.392 22.448 2.576 32.816l50.8 88.096c1.664 2.896 3.040 4.768 3.040 8.272 0 2.56-0.832 4.896-2.272 6.8-1.84 2.48-4.672 3.792-7.312 5.328l-27.84 16c-2.688 1.568-4.064 2.672-7.344 2.672-2.992 0-5.68-1.136-7.712-3.008-1.968-1.792-3.232-4.688-4.464-7.008-6.080-11.776-12.576-23.232-19.504-34.496-26-42.336-57.872-81.216-94.864-115.44-3.968-3.648-7.936-6.304-7.936-12.304zM305.604 458.915c0.48-1.248 0.736-2.592 0.736-4.016 0-3.44-1.376-5.408-2.976-8.208l-41.456-71.872c-10.656-18.4-4.416-41.952 14-52.608 18.4-10.656 41.968-4.4 52.624 14.032l63.696 110.32c7.92 13.68 6.48 30.192-2.336 42.16-1.056 1.408-3.328 4.416-3.84 5.84-1.712 4.896 0.432 8.88 2.864 13.12l18.128 31.392c10.56 18.432 4.24 41.92-14.176 52.48-2.208 1.296-4.544 2.32-6.896 3.104-2.544 0.88-3.968 1.056-6.128 3.056-2.224 2.080-3.632 5.040-3.632 8.32 0 0.976 0.128 1.904 0.384 2.816 0.48 1.952 1.584 3.664 2.608 5.392l104.224 180.544c2.096 3.696 0.832 8.384-2.832 10.496-3.696 2.112-8.384 0.848-10.48-2.832l-4-6.896c-2.032-3.104-5.52-5.168-9.52-5.168-2.624 0-4.112 0.672-6.304 1.936l-10.56 6.080c-3.68 2.128-8.368 0.848-10.48-2.832-2.112-3.664-0.848-8.384 2.832-10.496l10.096-5.824c1.824-1.040 2.928-1.584 4.304-3.344 1.552-1.936 2.432-4.368 2.432-7.024 0-0.848-0.080-1.664-0.224-2.432-0.384-1.648-1.584-3.856-2.448-5.344l-143.216-248.064c-3.696-6.448-6.688-11.312-8.064-18.896-1.872-10.304 0.592-20.96 6.688-29.36 1.472-2.048 3.040-3.408 3.952-5.872z" />
<glyph unicode="&#xe618;" glyph-name="uniE617" d="M454.163 89.857c-37.264-21.536-84.976-8.752-106.496 28.528-21.552 37.328-8.784 85.040 28.528 106.528 37.312 21.536 84.992 8.768 106.512-28.512 21.536-37.312 8.768-84.976-28.544-106.544zM420.579 339.009c1.344 0.352 2.544 1.104 3.456 2.096 1.168 1.264 1.552 2.512 2.096 4.064 12.72 36.352 19.376 74.192 19.856 112.048 0.656 50.32-9.408 100.72-30.272 147.696-5.648 12.656-12.208 25.296-19.696 37.808-7.28 12.176-15.36 23.984-24.144 35.312-12.768 16.56-9.968 40.224 6.144 53.36 0.688 0.56 1.408 1.024 2 1.728 1.056 1.216 1.68 2.816 1.68 4.56 0 1.584-0.512 3.040-1.376 4.208-1.008 1.408-2.304 2.016-3.728 2.912l-138.944 80.16c-3.696 2.096-4.976 6.8-2.864 10.496 2.112 3.664 6.832 4.912 10.512 2.832l260.832-150.48c1.888-1.040 3.2-2.048 5.488-2.048 1.968 0 3.776 0.816 5.056 2.128 1.44 1.472 1.776 2.976 2.464 4.768 0.704 1.68 1.488 3.376 2.464 4.992 2.16 3.728 4.848 6.944 7.856 9.632 0.768 0.656 1.456 1.2 2.032 2 0.864 1.184 1.392 2.624 1.392 4.208 0 1.664-0.592 3.2-1.568 4.416-0.832 1.056-1.616 1.52-2.784 2.176l-181.248 104.88c-3.648 2.096-4.928 6.816-2.784 10.528 2.128 3.648 6.848 4.912 10.512 2.8l215.52-124.736c1.264-0.56 2.48-1.184 3.664-1.872l43.296-25.024c1.36-0.768 2.592-1.6 3.792-2.48l172.656-99.92c0.144-0.064 0.288-0.176 0.448-0.272 9.584-5.712 16.032-14.688 18.688-24.656 2.72-10.128 1.552-21.328-4.128-31.152-2.144-3.68-6.864-4.944-10.496-2.816-3.712 2.144-4.96 6.864-2.816 10.528 3.536 6.128 4.256 13.12 2.512 19.472-1.632 6.224-5.6 11.824-11.552 15.376-0.112 0.064-0.24 0.128-0.368 0.192l-137.648 79.648c-1.856 1.056-3.168 2.032-5.392 2.032-2.72 0-5.136-1.552-6.304-3.776-0.56-1.136-0.848-2.8-1.088-4-0.848-3.712-2.256-7.344-4.256-10.8-0.88-1.536-1.872-2.976-2.912-4.352-1.712-2.144-3.312-3.456-3.312-6.544 0-3.12 1.6-4.96 4.112-6.432l52.080-30.048c0.448-0.192 0.832-0.4 1.2-0.656 9.536-5.696 15.936-14.656 18.624-24.624 2.656-9.936 1.6-20.912-3.824-30.592-1.232-2.624-3.888-4.448-6.96-4.448-4.272 0-7.728 3.472-7.728 7.744 0 1.312 0.368 2.64 1.072 3.856 3.52 6.144 4.24 13.104 2.544 19.456-1.712 6.336-5.824 12.064-11.936 15.568v0.016l-57.776 33.312c-1.776 1.040-2.928 1.888-5.088 1.888-3.104 0-5.728-1.968-6.688-4.688-0.528-1.52-0.432-2.496-0.288-3.968 4.448-46.464 1.824-93.056-7.584-138.208-11.248-54.128-32.224-106.208-62.304-153.584-1.2-1.888-2.24-3.232-2.24-5.6 0-3.184 1.664-5.008 4.16-6.576 4.848-3.088 9.632-6.336 14.288-9.696 58.96-42.592 102.208-106.944 116.64-183.6 3.888-20.896-9.84-40.992-30.768-44.912-20.912-3.888-41.024 9.84-44.912 30.784-10.656 56.544-42.512 103.984-85.888 135.328-43.472 31.376-98.544 46.688-155.6 39.008-14.624-1.968-29.024-5.424-42.848-10.272-13.808-4.864-27.152-11.12-39.84-18.72-18.256-10.944-41.872-4.992-52.768 13.248-10.928 18.208-4.976 41.856 13.28 52.768 17.088 10.272 35.184 18.752 53.984 25.36 18.752 6.592 38.16 11.264 57.936 13.92 25.952 3.472 51.696 3.456 76.56 0.24 1.552-0.144 2.304-0.384 3.824 0zM512.899 665.985c-0.528 0.512-1.040 0.816-1.632 1.136l-2.544 1.456c-0.656 0.368-1.392 0.816-2.080 1.072-0.784 0.304-1.616 0.464-2.512 0.464-2.8 0-5.2-1.664-6.352-4.032-0.576-1.136-0.752-2.656-0.928-3.936-0.688-4.752-2.208-9.408-4.752-13.792-1.008-1.776-2.144-3.424-3.392-4.976-0.608-0.752-1.344-1.52-1.856-2.384-0.576-1.040-0.928-2.208-0.928-3.504 0-1.472 0.352-2.272 0.896-3.536 12.8-29.168 22.208-59.424 28.176-90.128 0.304-1.68 0.448-3.296 1.408-4.8 1.264-2.032 3.472-3.36 6.048-3.36 3.216 0 5.936 2.128 6.8 5.056 0.384 1.232 0.384 2.8 0.416 4.064 1.024 37.68-3.44 75.744-13.712 112.944-0.208 0.928-0.448 1.824-0.624 2.704-0.208 1.056-0.304 2.080-0.752 3.104-0.384 0.928-0.96 1.776-1.68 2.448z" />
<glyph unicode="&#xe619;" glyph-name="uniE618" d="M824.271 665.473c37.152-21.472 49.904-68.992 28.432-106.16-21.408-37.152-68.96-49.872-106.128-28.432-37.152 21.44-49.904 68.976-28.432 106.16 21.44 37.152 68.976 49.872 106.128 28.432zM850.495 439.169c1.024 0.592 2.208 0.896 3.488 0.896 0.624 0 1.2-0.080 1.776-0.208 1.168-0.32 1.984-0.848 3.008-1.44l30.336-17.536c3.664-2.096 8.384-0.864 10.496 2.816 2.128 3.648 0.88 8.352-2.832 10.464l-31.904 18.432c-3.056 1.792-5.872 3.296-5.872 7.536 0 1.2 0.128 2.448 0.128 3.696 0.032 3.776-0.512 7.648-1.696 11.472-6.208 20.272-27.68 31.616-47.904 25.408-8.096-2.512-16.368-3.92-24.592-4.208-8.368-0.336-16.816 0.448-25.104 2.352-24.72 5.632-45.088 20.48-58.224 40.192-13.152 19.744-18.992 44.4-14.624 69.6 1.856 10.768-0.992 21.248-7.024 29.36-8.976 12.064-22.224 19.12-36.096 23.936-15.984 5.568-32.496 9.92-49.296 13.008-20.64 3.776-41.728 5.584-62.912 5.344-15.568-0.16-31.008-1.408-46.192-3.712-0.72-0.112-1.536-0.256-2.24-0.256-0.816 0-1.6 0.144-2.32 0.368-1.008 0.368-2.192 1.136-3.104 1.664l-152.464 88.656c-3.664 2.128-8.352 0.864-10.48-2.816-2.112-3.648-0.864-8.336 2.8-10.464l125.584-73.040c0.88-0.496 2.032-1.184 2.72-1.904 1.184-1.28 1.936-2.976 1.936-4.88 0-2.528-1.344-4.752-3.344-6-0.816-0.512-1.456-0.672-2.352-0.928-23.456-6.912-46.048-16.336-67.36-28.192-10.224-5.664-21.76-11.776-27.76-22.16-10.624-18.336-4.368-41.808 13.968-52.432l103.008-59.664c1.872-1.088 3.696-1.872 4.88-3.808 0.672-1.088 1.056-2.336 1.056-3.712 0-1.68-0.592-3.216-1.584-4.432-1.040-1.312-2.384-1.936-3.76-2.736l-108.352-62.544c-0.864-0.512-1.712-1.008-2.512-1.552-7.28-3.168-13.664-8.592-17.968-15.984-2.032-3.536-3.456-7.232-4.288-11.024-0.592-2.768-0.4-5.168-2.592-7.328-1.28-1.28-3.040-2.048-4.976-2.048-2.4 0-4.112 1.28-6.112 2.448l-182.944 105.856c-3.664 2.128-8.384 0.88-10.496-2.816-2.128-3.632-0.864-8.336 2.8-10.464l606.464-350.944c0.16-0.080 0.32-0.16 0.48-0.224 9.68-5.44 20.624-6.528 30.56-3.872 10.128 2.72 19.216 9.28 24.848 19.072 2.128 3.648 0.88 8.368-2.784 10.496-3.68 2.128-8.368 0.864-10.496-2.816-3.536-6.112-9.184-10.192-15.536-11.904-6.192-1.648-13.008-1.008-19.040 2.336-0.112 0.080-0.208 0.128-0.336 0.192l-278.512 161.168c-1.024 0.592-2.576 1.44-3.36 2.272-1.216 1.28-1.952 2.992-1.952 4.896 0 1.392 0.416 2.704 1.136 3.792 0.88 1.408 2.272 2.256 3.52 3.312 3.136 2.72 5.888 6 8.096 9.808 10.32 17.808 4.72 40.464-12.4 51.472-0.912 0.592-2.128 1.264-2.912 2.032-1.296 1.28-2.112 3.088-2.112 5.056 0 0.8 0.144 1.568 0.368 2.288 0.88 2.528 2.688 3.568 4.912 4.848l109.44 63.152c7.984 3.040 15.024 8.688 19.632 16.656 10.624 18.352 4.352 41.808-13.984 52.432l-93.312 54.064c-1.152 0.688-2.128 1.168-3.056 2.224-1.088 1.248-1.744 2.864-1.744 4.624 0 2.56 1.36 4.784 3.376 6.032 1.312 0.816 2.704 1.008 4.176 1.312 16.32 3.472 32.928 5.344 49.568 5.536 16.256 0.176 32.464-1.232 48.496-4.16 6.848-1.28 13.696-2.832 20.496-4.688 1.232-0.32 2.72-0.656 3.856-1.28 1.68-0.912 2.928-2.464 3.44-4.352 0.272-1.088 0.24-2.336 0.288-3.424 1.168-32.32 11.456-63.072 28.8-89.12 23.712-35.584 60.576-62.448 105.392-72.656 14.656-3.344 29.664-4.72 44.608-4.144 15.088 0.56 30.032 3.072 44.432 7.52 6.096 1.888 11.408 5.152 15.664 9.328 0.928 0.944 1.616 1.792 2.784 2.448z" />
<glyph unicode="&#xe61a;" glyph-name="uniE619" d="M288.168 304.521c-3.84 2.304-5.12 7.305-2.88 11.213 2.257 3.857 7.192 5.188 11.048 2.901l119.427-71.066c1.785-1.075 2.931-1.877 5.137-1.877 3.453 0 6.316 2.338 7.208 5.53 0.455 1.707 0.152 2.645 0.101 4.335-0.135 2.031-0.101 4.113 0.084 6.144 0.994 12.902 7.966 25.088 19.84 32.154l85.137 50.807c2.661 1.604 4.396 3.567 4.396 6.929 0 1.212-0.32 2.372-0.792 3.379-1.044 2.065-2.257 2.697-4.093 3.755l-148.733 87.108c-35.301 20.668-69.608 43.435-98.611 72.789-22.535 22.835-42.24 48.845-58.509 77.449-6.888 12.066-13.137 24.627-18.695 37.564-5.524 12.868-10.358 26.027-14.451 39.458-6.535 21.572 5.44 44.476 26.745 51.098 21.288 6.639 43.891-5.495 50.459-27.102 3.133-10.428 6.939-20.719 11.234-30.754 4.278-9.899 9.145-19.678 14.585-29.269 12.547-21.999 27.975-42.308 45.878-60.433 16.758-16.964 35.234-31.676 54.956-43.776 1.617-0.956 4.278-2.458 6.147-2.458 4.109 0 7.444 3.362 7.444 7.526 0 2.236-1.128 4.198-1.971 6.212-15.040 34.987-26.914 71.424-35.402 108.954-5.137 22.733-9.011 45.67-11.587 68.71-2.493 22.426-3.739 45.602-3.739 69.359 0 22.528 18.021 40.841 40.286 40.841 22.282 0 40.337-18.313 40.337-40.841 0-19.661 1.145-39.834 3.453-60.399 2.24-20.002 5.558-39.834 10.004-59.392 10.358-45.978 26.644-90.146 48.253-131.447 17.095-32.734 37.541-63.659 61.053-92.297 20.429-24.832 16.404-20.992 43.234-36.727l39.865-23.296c19.267-11.332 25.853-36.369 14.703-55.945-6.653-11.622-17.078-16.555-28.059-23.091l-74.358-44.407c-1.853-1.092-4.059-2.167-5.356-3.959-0.842-1.229-1.347-2.731-1.347-4.369 0-1.57 0.472-3.004 1.263-4.198 1.044-1.604 2.695-2.577 4.244-3.601l61.777-41.54c18.611-12.459 23.697-37.854 11.402-56.695-2.442-3.738-5.373-6.929-8.674-9.54-1.229-0.99-2.392-1.655-3.368-2.953-0.876-1.246-1.415-2.765-1.415-4.471 0-1.894 0.691-3.635 1.869-5.001 0.926-1.075 1.886-1.57 3.065-2.27l60.497-35.994c6.383-3.942 13.676-4.898 20.396-3.277 6.669 1.604 12.733 5.837 16.606 12.237 2.341 3.874 7.309 5.069 11.116 2.731 3.789-2.321 5.002-7.39 2.678-11.23-6.198-10.257-15.966-17.033-26.678-19.627-10.695-2.611-22.4-1.109-32.505 5.188l-384.707 228.932zM760.184 374.835c45.154-1.212 80.825-39.27 79.629-85.043-1.162-45.722-38.737-81.903-83.891-80.691-45.154 1.195-80.808 39.287-79.629 85.026 1.179 45.773 38.754 81.903 83.891 80.708v0 0z" />
<glyph unicode="&#xe61b;" glyph-name="wrestling" d="M496.832 800c0.256 0 0.512 0.064 0.768 0.064 4.288 33.536 21.344 62.784 46.4 83.072v61.184c-13.248 9.728-29.472 15.68-47.168 15.68-44.256 0-80-35.84-80-80 0-44.192 35.776-80 80-80zM403.552 438.624l-111.808 86.56-67.744-45.184-32-224-192-320h96l203.136 266.432zM339.456 176.32l-25.088-34.656-26.368-205.664h64l96 256-26.112 169.696zM599.008 728.992l8.8 14.88 95.328 31.744c0.288 2.816 0.864 5.504 0.864 8.384 0 44.16-35.84 80-80 80-44.256 0-80-35.84-80-80l55.008-55.008zM960.96 192l45.824 193.664-128.128-178.944-25.6-57.184 105.952-213.536h64.992zM992 512l-128 192-128 32-96-32-96-160-61.664-12.192 91.456 154.528-77.792 77.792v3.872h-112l-142.912-142.912 202.752-156.928 132.16 11.84 96 96 96-32 32-64-96-224.992-64-319.008h64.96l127.040 288 160 224z" />
<glyph unicode="&#xe61c;" glyph-name="winter-sports" d="M816.832 819.84c-44.576 0-80.768-36.096-80.768-80.8 0-39.328 28.032-71.936 65.152-79.2l94.88 94.112c-7.008 37.536-39.776 65.888-79.264 65.888zM127.712 812.576l-11.072-33.728 30.016-9.888 32 97.184 0.352-0.128 0.032 0.128-30.4 10.016-10.784-32.832-73.856 25.44v-33.728l63.84-22.080zM765.376 627.36l12.64-37.984 72.544-25.568h-114.496l-64 192-96.064 64.032-214.656-53.664-157.536 54.176-10.016-30.368 421.888-145.408c-0.256 0.544 88.64-176.672 88.64-176.672l223.808 63.936v39.584l-162.752 55.936zM978.112 73.536c-0.832-2.784-2.784-4.16-3.904-4.704-1.088-0.608-3.36-1.344-6.112-0.576l-525.792 180.096 174.56 251.488-40.736 84.384-53.792 41.632-228.32 78.432-5.952-12.448v-96l96.032-64 96-32-100.128-230.144-379.968 130.112v-51.168l914.432-314.24 39.52-12.032c5.472-1.696 11.072-2.528 16.608-2.528 8.992 0 17.888 2.176 26.080 6.496 13.216 7.008 22.944 18.72 27.36 32.992l-45.888 14.208z" />
<glyph unicode="&#xe61d;" glyph-name="weightlifting" d="M992 832v96l-32 32h-64l-32-32v-224.384l32-31.616h64l32 31.616v96.384h32v32zM64 960l-32-32v-96h-32v-32h32v-96.384l32-31.616h64l32 31.616v224.384l-32 32zM472.768 583.872c10.496-5.344 21.632-7.872 32.608-7.872 26.24 0 51.488 14.4 64.224 39.328 18.016 35.392 3.968 78.784-31.456 96.832-10.336 5.28-21.344 7.616-32.224 7.616-2.112 0-4.224-0.064-6.304-0.256l-55.456-108.832c6.72-11.008 16.256-20.512 28.608-26.816zM192 800h32l64-160.992 96-159.008 32-128-128-192v-224h64l32 192 110.144 96 57.056-111.488 120.8-176.512h64l-72.8 195.168-55.2 220.832v64l32 64 96 160 64 160h32v32h-640v-32zM275.744 800h473.056l-76.8-128-64-96-64-32h-38.144c-0.16 0-0.288-0.032-0.448-0.032-0.096 0-0.16 0.032-0.256 0.032h-26.336l-64 32-62.816 95.008-76.928 128.992h0.672z" />
<glyph unicode="&#xe61e;" glyph-name="volleyball" d="M208 544l-15.008 192h-48.992v-320l173.504 77.12-70.72 70.272zM403.904 674.208c22.272 5.536 39.904 20.032 50.304 38.624l-87.488 116.896c-0.48-0.128-0.928-0.064-1.408-0.192-42.944-10.688-68.992-54.048-58.336-96.96s54.016-69.056 96.928-58.368zM656.672 768c52.992 0 96 42.944 96 96 0 52.992-43.008 96-96 96s-96-43.008-96-96c0-53.056 43.008-96 96-96zM656.672 928c35.296 0 64-28.672 64-64s-28.704-64-64-64c-35.328 0-64 28.672-64 64s28.704 64 64 64zM432 128l-320-150.016v-41.984l416 108.928 64 339.072-32 192h160l192 96-32 46.976-160-66.656-192 19.68-192-64-43.904-21.952 72.512-72.032 0.512 0.256 98.88-98.272-32-96zM208 175.008v-47.008l192 48v95.648z" />
<glyph unicode="&#xe61f;" glyph-name="transfers" d="M495.968 607.040l240.064-239.776-0.032 143.872h64v-255.68l-256 0.032v63.936l149.44-0.032-245.44 245.12c0-79.744 0-244.352 0-245.12 0-193.856 122.464-337.184 288-383.36 165.568 46.176 288 189.536 288 383.36 0 1.024 0 287.648 0 287.648h-528.032zM431.968 670.976h144.032c0 1.024 0 289.024 0 289.024l-128-63.936-160 63.936-160-63.936-128 63.936c0 0 0.448-288 0.448-289.024 0-193.856 122.016-337.376 287.552-383.552 34.112 9.536 66.24 23.36 96 40.704v300.384l-140.256 140.064 45.248 45.248 142.976-142.848z" />
<glyph unicode="&#xe620;" glyph-name="traithlon" d="M128 896c0-35.346-28.654-64-64-64s-64 28.654-64 64c0 35.346 28.654 64 64 64s64-28.654 64-64zM128 640c0-35.346-28.654-64-64-64s-64 28.654-64 64c0 35.346 28.654 64 64 64s64-28.654 64-64zM288 768c0-35.346-28.654-64-64-64s-64 28.654-64 64c0 35.346 28.654 64 64 64s64-28.654 64-64zM836.512 534.912l91.488-54.912 96 160-32 32-64-96-69.664 87.072zM461.376 213.312l-237.376-53.312-32-64 320 32 160 141.632-128.768 42.72zM819.040 718.528l-19.040 17.472-128 64-224-64-32-203.36 44.864-6.208 37.888 160.448 109.248 17.12 32-192-64-160 288-96-32-288 64-32 64 384-192 96zM816 800c1.184 0 2.24 0.32 3.392 0.352l68.48 114.144c-12.864 26.816-40.096 45.504-71.872 45.504-44.192 0-80-35.808-80-80s35.808-80 80-80z" />
<glyph unicode="&#xe621;" glyph-name="uniE620" horiz-adv-x="2156" d="M345.735 906.105c160.93 0 291.84-130.91 291.84-291.84 0-160.903-130.91-291.813-291.84-291.813s-291.84 130.937-291.84 291.813c0 160.93 130.91 291.84 291.84 291.84zM345.735 960c-190.922 0-345.735-154.813-345.735-345.735 0-190.976 154.813-345.708 345.735-345.708 190.949 0 345.735 154.732 345.735 345.708 0 190.922-154.786 345.735-345.735 345.735v0zM1077.895 906.105c160.93 0 291.84-130.91 291.84-291.84 0-160.903-130.91-291.813-291.84-291.813-160.903 0-291.813 130.91-291.813 291.813 0 160.93 130.91 291.84 291.813 291.84zM1077.895 960c-190.922 0-345.708-154.813-345.708-345.735 0-190.976 154.786-345.708 345.708-345.708 190.949 0 345.735 154.732 345.735 345.708 0 190.922-154.786 345.735-345.735 345.735v0zM1810.109 906.105c160.903 0 291.786-130.91 291.786-291.84 0-160.903-130.883-291.813-291.786-291.813-160.93 0-291.84 130.91-291.84 291.813 0 160.93 130.91 291.84 291.84 291.84zM1810.109 960c-190.949 0-345.735-154.813-345.735-345.735 0-190.976 154.786-345.708 345.735-345.708s345.681 154.732 345.681 345.708c0 190.922-154.732 345.735-345.681 345.735v0zM1457.529 573.548c160.93 0 291.84-130.91 291.84-291.813 0-160.93-130.91-291.84-291.84-291.84-160.903 0-291.786 130.91-291.786 291.84 0 160.903 130.883 291.813 291.786 291.813zM1457.529 627.443c-190.895 0-345.681-154.786-345.681-345.708 0-190.949 154.786-345.735 345.681-345.735 191.003 0 345.735 154.786 345.735 345.735s-154.732 345.708-345.735 345.708v0zM698.233 573.548c160.93 0 291.84-130.91 291.84-291.813 0-160.93-130.91-291.84-291.84-291.84-160.903 0-291.813 130.91-291.813 291.84 0 160.903 130.91 291.813 291.813 291.813zM698.233 627.443c-190.922 0-345.708-154.786-345.708-345.708 0-190.949 154.786-345.735 345.708-345.735 190.976 0 345.735 154.786 345.735 345.735s-154.759 345.708-345.735 345.708v0z" />
<glyph unicode="&#xe622;" glyph-name="tennis" d="M341.504 664.96c-17.984-31.2-41.024-58.592-68.352-81.344l-2.784-2.272c-18.688-16.864-34.624-36.544-47.424-58.656-66.080-114.592-26.688-261.664 87.904-327.84 55.488-32.064 120.224-40.608 182.144-23.968 61.952 16.576 113.664 56.32 145.696 111.84 11.584 20 20.192 41.376 25.568 63.68l1.664 10.464c6.112 35.2 18.336 68.768 36.288 99.808 40.64 70.336 106.144 120.672 184.608 141.696 36.928 9.92 74.656 12.512 111.552 8.512-37.76 115.968-116.32 219.072-230.208 284.864-129.696 74.848-278.272 86.048-410.592 44.128 35.968-84.992 33.504-185.088-16.064-270.912zM903.328 536.48c-61.92-16.608-113.664-56.32-145.728-111.872-11.2-19.36-19.552-39.936-24.928-61.344l-3.2-17.92c-6.4-33.344-18.304-65.216-35.36-94.688-40.608-70.304-106.112-120.64-184.576-141.664-78.432-20.992-160.384-10.208-230.72 30.368-145.152 83.84-195.072 270.144-111.328 415.328 17.184 29.6 38.784 55.872 64.352 77.984l10.368 8.96c17.184 16.096 31.904 34.624 43.84 55.328 39.52 68.48 41.088 148.48 11.744 215.936-92.896-42.752-174.112-113.312-229.12-208.672-141.376-244.928-57.504-558.112 187.392-699.488 244.864-141.408 558.016-57.504 699.456 187.392 63.072 109.28 81.024 232.064 60.128 347.2-36.64 7.904-74.976 7.168-112.32-2.848z" />
<glyph unicode="&#xe623;" glyph-name="teakwondo" d="M118.176 575.456l-38.176-95.456-32-64 32-32 64 64 40.416 53.888-5.472 6.048zM118.944 811.232l13.44 3.328 75.616 18.912v110.72c-13.344 9.824-29.664 15.808-47.488 15.808-39.040 0-71.488-27.776-78.848-64.672-1.088-5.216-1.664-10.624-1.664-16.16 0-29.056 15.776-53.952 38.944-67.936zM432 640l-64 64 160 32 131.264 64h-387.264l-128-32-32-64v-49.888l102.624-114.080 121.376-60.032-64-160-32-384h64l64 320 128 192 224 224 256 160v64z" />
<glyph unicode="&#xe624;" glyph-name="table-tennis" d="M873.952 288.064c3.776 3.52 7.744 6.688 11.424 10.368 167.264 167.232 185.792 419.904 41.376 564.384-144.448 144.352-397.056 125.792-564.352-41.504-88.96-88.928-135.072-201.952-137.664-310.048l-0.736 0.736v-224l-224-224 128-128 224 224h224l-0.736 0.736c1.248 0.032 2.528 0.256 3.776 0.288-1.856-10.752-3.040-21.728-3.040-33.024 0-106.016 85.952-192 192-192 106.016 0 192 85.984 192 192 0 66.816-34.208 125.664-86.048 160.064zM331.552 207.424l-203.552-203.552-60.128 60.128 203.072 203.072v180.928l109.312-109.12-71.552-71.552 22.624-22.624 71.616 71.616 109.056-108.896h-180.448zM768-16c-79.424 0-144 64.608-144 144s64.576 144 144 144c79.392 0 144-64.608 144-144s-64.608-144-144-144z" />
<glyph unicode="&#xe625;" glyph-name="swimming" d="M39.616 308.704l88.384-29.44 96 32 96-32 96 32 96-32 96 32 96-32.32v116.608l-32 96-224 224h-64l-224-224 32-32 224 128 64-96v-32zM800 311.264l96-32 52.128 17.408c7.776 15.264 12.576 32.256 12.576 50.528 0 62.112-50.304 112.384-112.352 112.384s-112.352-50.272-112.352-112.384c0-19.168 5.248-36.896 13.728-52.704l50.272 16.768zM992 246.144l-96-32-96 32-96-32-96 32-96-32-96 32-96-32-96 32-96-32-96 32-32-10.592v-33.664l31.968 10.56 96.032-32 96 32 96-32 96 32 96-32 96 32 96-32 96 32 96-32 96.032 32 31.968-10.56v33.696z" />
<glyph unicode="&#xe626;" glyph-name="standing-tables" d="M0 656h384l-192 288zM192-48l192 288h-384zM480 880h544v-160h-544v160zM480 176h544v-160h-544v160zM480 528h544v-160h-544v160zM0 528h384v-160h-384v160z" />
<glyph unicode="&#xe627;" glyph-name="squash" d="M632.192 432c-5.248 0-11.008 0.288-16.8 0.704l72.64 72.672 40.512-40.512c7.936 7.328 16.448 13.92 25.568 19.68l-43.488 43.456 73.376 73.376 81.504-81.504c-3.616-2.848-7.552-5.44-11.264-8.192 21.184-0.736 41.376-5.12 60.064-12.736 4.576 4.128 9.44 8.032 13.696 12.32 114.624 114.656 128.576 286.528 31.136 383.872-43.584 43.552-102.016 64.864-163.584 64.864-76.128 0-156.992-32.608-220.384-95.936-79.072-79.136-132.864-208.128-126.624-312.512l-84.256-207.84-123.008-123.040-20.128 20.128-221.152-221.216 83.616-83.584 221.184 221.248-17.952 17.952 126.624 126.688 203.488 83.232c5.152-0.32 10.048-1.12 15.232-1.12 15.488 0 31.488 1.632 47.68 3.968 6.112 19.904 15.872 38.208 28.256 54.432-25.952-6.528-51.744-10.4-75.936-10.4zM577.056 439.648c-16.928 5.152-33.376 13.44-46.752 26.784-11.808 11.808-20.544 27.328-26.304 45.568l88.576 88.832 72.8-72.832-88.32-88.352zM688 550.624l-72.864 72.864 73.248 73.504 72.992-72.992-73.376-73.376zM592.512 646.112l-63.616 63.648c14.56 33.248 33.376 64.544 55.072 91.68l81.824-81.856-73.28-73.472zM710.944 719.68l73.248 73.504 73.184-73.184-73.376-73.376-73.056 73.056zM894.048 545.184c-1.376-1.408-3.072-2.688-4.576-4.064l-82.88 82.88 73.408 73.376 71.36-71.328c-13.792-29.216-33.12-56.672-57.312-80.864zM975.264 713.568c-1.504-18.56-5.44-36.928-11.2-54.976l-61.44 61.408 65.888 65.888c6.304-22.528 8.8-46.784 6.752-72.32zM955.872 818.496l-75.872-75.872-73.184 73.216 75.328 75.552c15.68-8 30.432-17.6 43.072-30.24 12.544-12.512 22.656-26.976 30.656-42.656zM849.504 904.064l-65.312-65.6-61.76 61.728c24 7.68 48.672 11.808 73.12 11.808 19.136 0 36.96-3.2 53.952-7.936zM690.176 887.2l71.36-71.36-73.216-73.536-83.328 83.328c1.376 1.44 2.688 3.072 4.128 4.48 24.128 24.128 51.808 43.264 81.056 57.088zM503.2 631.616c3.328 15.264 7.808 30.464 12.992 45.568l53.76-53.728-72.992-73.248c-2.016 24.48-0.16 51.84 6.24 81.408zM450.624 386.208l27.744 68.608c5.312-7.936 11.2-15.488 18.048-22.336 6.944-7.008 14.944-12.672 23.072-18.048l-68.864-28.224zM848 480c-79.552 0-144-64.48-144-144s64.448-144 144-144c79.488 0 144 64.48 144 144s-64.512 144-144 144zM799.936 352c-17.632 0-31.936 14.176-31.936 31.68s14.304 31.552 31.936 31.552 31.936-14.048 31.936-31.552-14.304-31.68-31.936-31.68zM895.936 352c-17.632 0-31.936 14.176-31.936 31.68s14.304 31.552 31.936 31.552 31.936-14.048 31.936-31.552-14.304-31.68-31.936-31.68z" />
<glyph unicode="&#xe628;" glyph-name="sport-personality" d="M752 608h256v95.136l-256 0.864v64h224v96h-224v96h-608v-448h179.232l-179.232-448h-128v-128h832v128h-128l-179.232 448h211.232v96zM400 832h96v-96h-96v96zM240 736v96h96v-96h-96zM208 64l168 264 24-264h-192zM656 64h-192l24 264 168-264zM656 736.224h-96v95.776h96v-95.776z" />
<glyph unicode="&#xe629;" glyph-name="snooker" d="M416.032 313.984c0-35.346-28.654-64-64-64s-64 28.654-64 64c0 35.346 28.654 64 64 64s64-28.654 64-64zM576.032 313.984c0-35.346-28.654-64-64-64s-64 28.654-64 64c0 35.346 28.654 64 64 64s64-28.654 64-64zM736.032 313.984c0-35.346-28.654-64-64-64s-64 28.654-64 64c0 35.346 28.654 64 64 64s64-28.654 64-64zM496.032 473.984c0-35.346-28.654-64-64-64s-64 28.654-64 64c0 35.346 28.654 64 64 64s64-28.654 64-64zM656.032 473.984c0-35.346-28.654-64-64-64s-64 28.654-64 64c0 35.346 28.654 64 64 64s64-28.654 64-64zM496.032 153.984c0-35.346-28.654-64-64-64s-64 28.654-64 64c0 35.346 28.654 64 64 64s64-28.654 64-64zM656.032 153.984c0-35.346-28.654-64-64-64s-64 28.654-64 64c0 35.346 28.654 64 64 64s64-28.654 64-64zM814.016 153.984c0-35.346-28.654-64-64-64s-64 28.654-64 64c0 35.346 28.654 64 64 64s64-28.654 64-64zM337.472 153.984c0-35.346-28.654-64-64-64s-64 28.654-64 64c0 35.346 28.654 64 64 64s64-28.654 64-64zM576.032 633.984c0-35.346-28.654-64-64-64s-64 28.654-64 64c0 35.346 28.654 64 64 64s64-28.654 64-64zM1002.496 98.944l0.288 0.128-401.888 774.944c-14.24 35.168-48.608 59.968-88.864 59.968-40.288 0-74.624-24.8-88.864-59.968l-400.928-773.152 0.16-0.192c-6.464-12.896-10.432-27.264-10.432-42.688 0-53.024 42.976-96 96-96l805.376 0.256c0.896-0.032 1.76-0.256 2.688-0.256 53.024 0 96 42.976 96 96 0 14.72-3.616 28.512-9.536 40.96zM108.16 57.984l398.208 768h11.296l398.272-768h-807.776z" />
<glyph unicode="&#xe62a;" glyph-name="shooting" d="M392.832 920.896c-16.512 25.088-45.568 40.704-77.504 37.92-46.432-4-80.736-44.8-76.736-91.296 0.64-7.232 2.432-14.016 4.736-20.608h114.56l34.944 73.984zM494.4 780.032v22.496l6.016 1.28 509.184 109.312-3.36 15.648h0.032l-6.752 31.232-601.12-129.024-63.36-32.512-0.064 0.032 0.256 0.512h-192.832l-43.648-43.584 110.56-89.728zM509.152 734.24l-14.752-31.104-25.28 15.072-268.16-107.52-115.808 93.984 57.248-257.28-32-223.744-96-287.648h74.368l131.296 287.648 40.448 125.6 73.888-125.6 53.728-287.648h74.272l-32 287.648-64 255.712-32 97.888 31.744 62.944 160.992-31.968 75.52 175.968-77.696-16.544z" />
<glyph unicode="&#xe62b;" glyph-name="sailing" d="M624 768v-608h256zM592 832l-32 128h-32l-96-160-27.232-63.52h90.56v-32h-104.256l-55.072-128.48h96v-32h-104.704l-34.944-128h107.648v-32h-116.352l-43.648-160h352zM144 64v-96h32l29.44 88.32 194.56-24.32h32v-96h64l96 96h192l96 96h-704z" />
<glyph unicode="&#xe62c;" glyph-name="rugby-union" d="M950.944 886.912c-48.288 48.32-116.608 73.088-198.080 73.088-35.456 0-73.408-4.704-113.312-14.208-134.72-32.16-274.016-114.944-392.192-233.12-118.208-118.176-200.992-257.504-233.152-392.192-31.328-131.488-10.432-242.080 58.912-311.392 48.256-48.288 116.576-73.088 198.016-73.088 35.456 0 73.408 4.704 113.312 14.208 134.752 32.16 274.016 114.912 392.256 233.088 118.144 118.144 200.96 257.472 233.12 392.256 31.328 131.488 10.4 242.048-58.88 311.36zM963.104 586.72c-30.112-126.24-108.384-257.472-220.384-369.44s-243.2-190.24-369.44-220.384c-35.904-8.544-70.272-12.896-102.144-12.896-60.48 0-111.616 15.84-149.344 45.92l130.752 261.536-35.776 35.776-129.952-259.872c-40.352 57.888-49.728 142.304-25.952 241.984 30.144 126.208 108.416 257.408 220.416 369.376 111.968 112 243.168 190.24 369.408 220.384 35.904 8.544 70.304 12.896 102.208 12.896 55.872 0 103.616-13.696 140.352-39.456l-253.344-136.448 35.424-35.392 254.528 137.056c46.176-57.952 58.336-145.856 33.248-251.040zM494.464 439.424c-20.992-20.96-36.864-35.296-47.488-42.752-10.624-7.488-22.88-10.464-36.8-8.96s-28.576 9.856-43.808 25.056c-14.944 14.976-23.424 30.080-25.504 45.312-2.048 15.264 1.184 29.408 9.76 42.56 5.44 8.064 19.552 23.552 42.432 46.432l143.808 143.808-53.568 53.6-141.696-141.632c-29.76-29.728-50.432-53.984-62.176-72.672-7.872-12.672-12.64-27.488-14.368-44.512s0.992-34.944 8.256-53.888c7.264-18.976 23.552-41.12 48.928-66.464 20.928-21.056 40.672-35.392 59.136-43.040 18.432-7.648 36.064-10.88 52.864-9.632 16.864 1.28 33.312 7.040 49.376 17.312 16.064 10.24 40.064 31.328 71.936 63.2l139.488 139.552-53.632 53.632-146.944-146.912z" />
<glyph unicode="&#xe62d;" glyph-name="rugby-sevens" d="M950.944 886.944c-48.32 48.288-116.64 73.056-198.080 73.056-35.456 0-73.44-4.672-113.312-14.176-134.752-32.192-274.016-114.944-392.192-233.152-118.24-118.176-200.992-257.504-233.184-392.192-31.328-131.488-10.432-242.112 58.944-311.424 48.256-48.256 116.576-73.056 198.016-73.056 35.456 0 73.44 4.704 113.312 14.24 134.752 32.128 273.984 114.88 392.256 233.056 118.112 118.176 200.928 257.504 233.12 392.256 31.296 131.52 10.432 242.080-58.88 311.392zM963.136 586.72c-30.112-126.24-108.416-257.472-220.384-369.44-112-111.968-243.232-190.208-369.472-220.352-35.904-8.544-70.272-12.928-102.144-12.928-60.48 0-111.616 15.84-149.312 45.952l130.752 261.504-35.776 35.776-129.952-259.84c-40.352 57.856-49.728 142.272-25.984 241.984 30.144 126.208 108.448 257.408 220.448 369.408 111.936 111.968 243.168 190.24 369.408 220.384 35.872 8.48 70.272 12.832 102.144 12.832 55.872 0 103.616-13.696 140.384-39.456l-253.376-136.416 35.424-35.424 254.528 137.056c46.208-57.952 58.368-145.856 33.312-251.040zM551.264 492.288c-25.792-10.848-50.528-24.32-74.24-40.416s-45.824-33.824-66.336-53.056c-20.544-19.296-37.952-38.464-52.256-57.6l-62.976 45.696c34.784 40.928 75.232 75.328 121.312 103.072 46.048 27.68 95.040 48.256 146.912 61.632l-137.568 99.872 39.712 54.688 198.048-143.744-36.672-50.56c-24.896-2.272-50.176-8.8-75.936-19.584z" />
<glyph unicode="&#xe62e;" glyph-name="rugby-league" d="M950.944 886.912c-48.288 48.32-116.608 73.088-198.080 73.088-35.456 0-73.408-4.704-113.312-14.208-134.72-32.16-274.016-114.944-392.192-233.12-118.208-118.176-200.992-257.504-233.152-392.192-31.328-131.488-10.432-242.080 58.912-311.392 48.256-48.288 116.576-73.088 198.016-73.088 35.456 0 73.408 4.704 113.312 14.208 134.752 32.16 274.016 114.912 392.256 233.088 118.144 118.144 200.96 257.472 233.12 392.256 31.328 131.488 10.4 242.048-58.88 311.36zM963.104 586.72c-30.112-126.24-108.384-257.472-220.384-369.44s-243.2-190.24-369.44-220.384c-35.904-8.544-70.272-12.896-102.144-12.896-60.48 0-111.616 15.84-149.344 45.92l130.752 261.536-35.776 35.776-129.952-259.872c-40.352 57.888-49.728 142.304-25.952 241.984 30.144 126.208 108.416 257.408 220.416 369.376 111.968 112 243.168 190.24 369.408 220.384 35.904 8.544 70.304 12.896 102.208 12.896 55.872 0 103.616-13.696 140.352-39.456l-253.344-136.448 35.424-35.392 254.528 137.056c46.176-57.952 58.336-145.856 33.248-251.040zM490.048 737.248l-263.392-263.36 186.976-186.944 44.768 44.736-133.376 133.312 218.688 218.656z" />
<glyph unicode="&#xe62f;" glyph-name="rowing" d="M559.456 356.608l-47.456-68.608h64l36.128 45.184zM896 1.728l-96 32-96-32-96 32-96-32-96 32-96-32-96 32-96-32-96 32-32-10.592v-33.696l31.968 10.56 96.032-32 96 32 96-32 96 32 96-32 96 32 96-32 96 32 96-32 96.032 32 31.968-10.56v33.728l-32 10.56zM320 69.152l96 32 30.592-10.176-266.592 431.264-28.672-14.336 155.776-251.904h-307.104zM896 672l-160 128-512-256 27.136-44.64 228.864 76.64 128 64 192-160v-32l-288 96-128-256h64l96 128 288-128h128l64 64v96zM516.928 70.816l91.072 30.336 96-32 96 32 96-32 95.968 32 32.032-10.56v165.408h-621.952zM596.384 784.256c23.136 27.936 27.584 68.32 7.808 101.152-25.088 41.632-79.104 55.072-120.736 29.984-30.144-18.176-45.248-51.616-41.824-84.512l119.584-63.744 35.168 17.12z" />
<glyph unicode="&#xe630;" glyph-name="results2" d="M871.872 673.469l135.741-135.741-90.283-90.283-135.741 135.741 90.283 90.283zM691.584 693.44c0 44.192-35.808 80-80 80s-80-35.808-80-80 35.808-80 80-80 80 35.808 80 80zM611.584 645.44c-26.464 0-48 21.536-48 48s21.536 48 48 48 48-21.536 48-48-21.536-48-48-48zM611.584 613.44c-185.568 0-336-150.432-336-336s150.432-336 336-336 336 150.432 336 336-150.432 336-336 336zM611.584 37.44c-132.352 0-240 107.648-240 240s107.648 240 240 240 240-107.648 240-240-107.648-240-240-240zM389.088 893.76l-22.112 60.8c-143.712-52.064-265.952-148.896-350.592-273.28l52.64-36.832c77.216 113.472 188.864 201.76 320.064 249.312zM410.976 833.696c-118.816-43.008-219.84-123.072-289.6-225.952l52.384-36.672c62.24 92.256 152.672 164.064 259.104 202.528l-21.888 60.096zM476.576 653.504l-21.888 60.064c-94.016-33.952-173.824-97.504-228.608-179.136l52.384-36.672c47.296 71.040 116.48 126.336 198.112 155.744zM595.584 453.44h64v-192h-64v192z" />
</font>
</defs>
</svg>
